<svg xmlns="http://www.w3.org/2000/svg" viewBox="0 0 584 584">
  <defs>
    <radialGradient cx="92.529%" cy="30.971%" fx="92.529%" fy="30.971%" r="114.562%" id="a">
      <stop stop-color="#4A4375" offset="0%"/>
      <stop stop-color="#302C43" offset="100%"/>
    </radialGradient>
    <path id="b" d="M11.275 11H.352V.076h10.923V11z"/>
    <path id="d" d="M.935.94h11.746v11.746H.935V.94z"/>
    <path id="f" d="M82 82H0V0h82z"/>
    <path id="h" d="M10.071 10.348H.29V.566h9.781v9.782z"/>
    <clipPath id="clip-path">
      <circle cx="292" cy="292" r="292" />
    </clipPath>
  </defs>
  <g id="circle" clip-path="url(#clip-path)">

    <circle cx="292" cy="292" r="292" fill="url(#a)" fill-rule="nonzero" />

    <g id="stars">
      <animateTransform attributeName="transform"
        attributeType="XML"
        type="translate"
        from="0 0"
        to="40 60"
        dur="60s"
        repeatCount="0"
        fill="freeze"
      />
      <path d="M425 479.501a8.499 8.499 0 0 1-8.5 8.499 8.501 8.501 0 1 1 8.5-8.499" fill="#F4362C"/>
      <g transform="translate(259 494)">
        <mask id="c" fill="#fff">
          <use xlink-href="#b"/>
        </mask>
        <path d="M11.275 5.539a5.462 5.462 0 0 1-10.923 0 5.462 5.462 0 0 1 10.923 0" fill="#7D766A" mask="url(#c)"/>
      </g>
      <path d="M372.5 418a3.5 3.5 0 1 1 0-7.001 3.5 3.5 0 0 1 0 7.001z" fill="#00AD6B"/>
      <path d="M152.47 437.27c-4.232 4.237-12.909 5.025-16.444 5.17 3.535.26 12.212 1.051 16.444 5.287 4.218 4.223 4.897 12.769 4.994 16.247.167-3.478.848-12.024 5.068-16.25 4.23-4.233 12.91-5.024 16.442-5.167-3.535-.26-12.212-1.05-16.442-5.286-4.223-4.224-4.901-12.77-4.999-16.245-.166 3.476-.845 12.021-5.063 16.245z" fill="#FF9A09">
        <animate id="blink" attributeName="opacity"
          attributeType="CSS"
          from="1"
          to="0"
          dur="20s"
          values="1; 1; 0; 1; 1; 0; 1; 1;"
          keyTimes="0;0.09;0.1;0.12;0.22;0.23;0.25;1"
          begin="8s"
          repeatCount="indefinite"
        />
      </path>
      <g transform="rotate(24 -46.674 935.235)">
        <mask id="e" fill="#fff">
          <use xlink-href="#d"/>
        </mask>
        <path d="M12.681 6.812a5.874 5.874 0 1 1-11.748 0 5.874 5.874 0 0 1 11.748 0" fill="#F4362C" mask="url(#e)"/>
      </g>
      <path d="M522.865 204.715a7.761 7.761 0 1 1-14.18-6.317 7.761 7.761 0 0 1 14.18 6.317" fill="#079DAD"/>
      <g>
        <animateTransform attributeName="transform"
          attributeType="XML"
          type="rotate"
          from="0 385 205"
          to="-360 385 205"
          dur="20s"
          repeatCount="indefinite"
        />
        <path d="M387.214 198.454c-3.756-1.672-6.323-7.21-7.254-9.512-.002-.006-.024-.004-.065.006.732 2.405 2.272 8.364.52 12.297-1.747 3.925-7.14 6.657-9.382 7.649 2.303-.818 8.02-2.651 11.767-.983 3.754 1.672 6.323 7.21 7.252 9.512.003.006.026.004.067-.006-.734-2.405-2.273-8.363-.521-12.297 1.746-3.925 7.141-6.657 9.379-7.65-2.301.819-8.017 2.652-11.763.984z" fill="#7D766A"/>
      </g>

      <path d="M284.515 76.201c-.004-.003-.003 0-.003 0a.096.096 0 0 1-.012-.02c-4.383.18-15.16.047-20.842-5.059-5.698-5.118-7.475-16.308-7.977-20.883-.001-.02-.019-.033-.038-.031l-.032.002-.003.007-.004-.007-.039.003s-.031.016-.03.036c.14 4.601-.062 15.929-4.993 21.79-4.915 5.847-15.57 7.478-19.926 7.908-.01.004-.012.014-.018.021v.003l-.009.008-.002.017.004.013.007.006.004.007c.006.003.01.02.01.02 4.384-.183 15.162-.05 20.846 5.055 5.692 5.12 7.472 16.312 7.97 20.88.006.024.023.036.039.035l.039-.002s0-.004.003-.007v.006l.036-.002s.034-.02.033-.04c-.14-4.597.063-15.925 4.993-21.787 4.915-5.85 15.57-7.478 19.923-7.907 0 0 .015-.01.021-.021h.003v-.007l.01-.004-.002-.017v-.013l-.011-.01" fill="#00AD6B"/>
      <circle cx="40" cy="70" r="5" fill="#FF9A09" />
      <circle cx="0" cy="360" r="2" fill="#fff" />
      <path transform="translate(200 -250)" d="M91.963 193.022c-.003 0 0 0 0 0-.007 0-.012-.003-.017 0-1.576 1.49-5.64 4.957-9.363 4.957-3.73 0-7.906-3.48-9.529-4.974-.007-.007-.016-.007-.023 0l-.014.012.002.005-.002-.003-.012.014c-.007.005-.007.017 0 .024 1.492 1.62 4.974 5.796 4.974 9.528-.002 3.723-3.468 7.787-4.96 9.36-.002.005 0 .01 0 .015l.003.002-.003.002c.003 0 0 .003 0 .003l.005.007.005.002s.004 0 .007.002c0-.002 0 0 .002 0 .002-.002.01.003.014 0 1.576-1.491 5.64-4.957 9.363-4.957 3.732 0 7.909 3.48 9.527 4.974.01.007.018.007.026 0l.014-.014s-.003 0-.003-.003l.003.003.014-.014c.004-.007.007-.017 0-.024-1.497-1.622-4.974-5.794-4.974-9.528 0-3.723 3.465-7.787 4.955-9.36.005-.005.002-.01 0-.017h.002l-.002-.002c0-.003.002-.005.002-.005l-.004-.005-.005-.004h-.007" fill="#7D766A" ></path>
      <g transform="translate(428 273)">
        <mask id="g" fill="#fff">
          <use xlink-href="#f"/>
        </mask>

        <path d="M40.968.014v.004c-.018.005-.032.01-.036.032-.186 6.628-1.48 22.924-9.524 30.978C23.338 39.106 6.791 40.61.05 40.886c0 0-.05.023-.05.05v.06h.01L0 41v.06a.07.07 0 0 0 .018.044c6.773.278 23.32 1.786 31.39 9.863 8.044 8.055 9.338 24.35 9.524 30.983.004.014.018.023.027.027h.01v.005l.008.013L41 82l.018-.005.014-.013c0-.005 0 0 .009-.005.004-.004.023-.009.023-.027.186-6.633 1.484-22.928 9.532-30.987 8.067-8.073 24.618-9.581 31.354-9.854 0 0 .05-.023.05-.05V41l-.01-.005H82v-.059c-.005-.027-.023-.045-.023-.045-6.768-.277-23.314-1.785-31.38-9.863C42.542 22.974 41.25 6.678 41.063.05c0-.018-.01-.027-.023-.032V.014h-.01C41.028.009 41.028 0 41.028 0h-.045l-.014.014" fill="#F4362C" mask="url(#g)"/>
      </g>
      <path d="M91.963 193.022c-.003 0 0 0 0 0-.007 0-.012-.003-.017 0-1.576 1.49-5.64 4.957-9.363 4.957-3.73 0-7.906-3.48-9.529-4.974-.007-.007-.016-.007-.023 0l-.014.012.002.005-.002-.003-.012.014c-.007.005-.007.017 0 .024 1.492 1.62 4.974 5.796 4.974 9.528-.002 3.723-3.468 7.787-4.96 9.36-.002.005 0 .01 0 .015l.003.002-.003.002c.003 0 0 .003 0 .003l.005.007.005.002s.004 0 .007.002c0-.002 0 0 .002 0 .002-.002.01.003.014 0 1.576-1.491 5.64-4.957 9.363-4.957 3.732 0 7.909 3.48 9.527 4.974.01.007.018.007.026 0l.014-.014s-.003 0-.003-.003l.003.003.014-.014c.004-.007.007-.017 0-.024-1.497-1.622-4.974-5.794-4.974-9.528 0-3.723 3.465-7.787 4.955-9.36.005-.005.002-.01 0-.017h.002l-.002-.002c0-.003.002-.005.002-.005l-.004-.005-.005-.004h-.007" fill="#079DAD"/>
      <g transform="translate(170.095 158.851)">
        <mask id="i" fill="#fff">
          <use xlink-href="#h"/>
        </mask>
        <path d="M5.18 10.35A4.89 4.89 0 0 1 .29 5.457 4.89 4.89 0 0 1 5.18.566a4.891 4.891 0 1 1 0 9.784z" fill="#F9E9CA" mask="url(#i)"/>
      </g>
      <circle cx="235" cy="40" r="3" fill="#079DAD">
        <animate
          attributeName="r"
          id="planetJump"
          from="3"
          to="1000"
          dur="5s"
          begin="67s"
          fill="freeze"
        />
        <animate attributeName="opacity"
          attributeType="XML"
          from="1"
          to="1"
          values="1; .75; 1;"
          keyTimes="0;0.5;1"
          dur="60s"
          begin="planetJump.end+60s;"
          repeatCount="indefinite"
        />
      </circle>
    </g>
    <g id="parts" fill="none" fill-rule="evenodd" transform="translate(17.11 286.297)">
      <g>
        <animateTransform attributeName="transform"
          attributeType="XML"
          type="rotate"
          from="0 -100 50"
          to="-45 -100 50"
          begin="0s"
          dur="30s"
          repeatCount="0"
          fill="freeze"
        />
        <g>
          <animateTransform attributeName="transform"
            attributeType="XML"
            type="translate"
            from="0 0"
            to="-300 250"
            begin="0s"
            dur="50s"

            repeatCount="0"
            fill="freeze"
          />
          <g>
            <animateTransform attributeName="transform"
              attributeType="XML"
              type="rotate"
              from="0 120 30"
              to="-360 120 30"
              dur="8s"
              repeatCount="indefinite"
            />
            <path id="pieces" stroke="#CCC" fill="#CCC" d="M97.574 25.016l3.021-1.217 3.336 1.436 3.128-2.353.9 4.189 3.032.459-.79 5.631-4.169.628-1.22 4.256zm66.256-1.679v-1.504l1.361-1.018.905 1.767 1.277.252-2.182 2.108zM119.966 40.55l-1.489-.21-.82-1.49 1.877-.65.427-1.23 1.784 2.454zm20.99-35.784l1.198-1.574.31-2.019 1.383-.736.799 2.755-1.21.56-1.536 2.526zm4.239 14.034l-.099-.28.302-.206.295.206v.067l-.295.326zm20.858-2.858l-.286.079-.184-.316-.086-.193.378-.082.305.317z"/>
          </g>
          <path id="hose" d="M96.178 34.219c-10.295 5.548-34.109 6.747-52.996 20.739C24.295 68.949 17.99 100.416 0 106.972" stroke="#E6E6E6" stroke-width="9"/>
          <rect fill="#FFF" transform="rotate(-29 99.214 32.699)" x="96.362" y="19.063" width="5.703" height="27.271" rx="1"/>
          <rect fill="#FFF" transform="rotate(-29 95.499 34.898)" x="92.647" y="26.573" width="5.703" height="16.651" rx="1"/>
        </g>
      </g>
    </g>
    <g id="alien">
      <animateTransform attributeName="transform"
        attributeType="XML"
        type="translate"
        from="0 100"
        to="700 450"
        dur="25s"
        values="0 100; 100 150; 120 220; 80 260; 120 330; 200 300; 210 350; 220 300; 240 360; 260 310; 1200 700;"
        keyTimes="0;0.1;0.2;0.24;0.28;0.5;0.54;0.58;0.72;0.76;1"
        repeatCount="0"
        fill="freeze"
        begin="6.5s"

      />
      <g>
        <animateTransform attributeName="transform"
          attributeType="XML"
          type="scale"
          from="0"
          to="3"
          dur="7s"
          begin="6.5s"
          repeatCount="0"
          fill="freeze"
        />
        <circle r="2.044" cy="12.491" cx="9.938" fill="#00599f"/>
        <circle r="2.044" cy="13.463" cx="16.481" fill="#00599f"/>
        <circle cx="22.919" cy="12.363" r="2.044" fill="#00599f"/>
        <path d="M32.392 8.843c-.024 2.085-7.727 4.355-16.687 4.235-8.96-.12-15.7-2.613-15.705-4.69-.005-2.076 7.278-3.665 16.237-3.546 8.96.12 16.19 1.913 16.155 4z" fill="#6198aa"/>
        <path d="M29.228 7.975c-.02 1.678-6.218 3.505-13.427 3.408C8.592 11.287 3.168 9.281 3.164 7.61 3.161 5.938 9.02 4.66 16.23 4.756c7.21.097 13.026 1.54 13 3.22z" fill="#89b2bf"/>
        <path d="M21.902 6.088a6 6 0 1 0-12-.176c.763 3.285 10.571 4.221 12 .176z" fill="#ececec"/>
        <path d="M15.712 1.894a2.672 2.672 0 0 0-2.678 2.678v3.734c1.732.51 3.87.616 5.637.185v-3.92a2.672 2.672 0 0 0-2.678-2.677h-.281z" fill="#87d86d"/>
        <path d="M15.712 1.894a2.672 2.672 0 0 0-2.678 2.678v3.734a11.6 11.6 0 0 0 2.834.445V1.894h-.156z" fill="#73aa61"/>
        <circle cx="15.903" cy="4.646" r="1.895" fill="#fff"/>
        <circle r="1.131" cy="4.691" cx="15.903"/>
        <path d="M16.32 3.902l-.036.33c.193.115.251.312.305.51.108-.296-.04-.571-.27-.84z" fill="#fff" fill-rule="evenodd"/>
      </g>
    </g>
    <g id="fishing" transform="translate(-145 55)">
      <g transform="scale(0)">
        <animateTransform attributeName="transform"
          attributeType="XML"
          type="scale"
          from="0"
          to="1"
          dur="4s"
          begin="planetJump.end-3s;"
          repeatCount="0"
          fill="freeze"
        />
        <g id="island" transform="translate(0 0) scale(8)">
          <g id="water">
            <path d="M86.051 40.849c-2.24 11.57-17.17 12.69-42.924 12.69-25.754 0-40.684-.933-42.924-12.69-2.426-12.504 17.17-20.903 42.924-20.903 25.755 0 45.35 8.399 42.924 20.903" fill="#7db8d4" fill-opacity=".3">
              <animateTransform attributeName="transform"
                attributeType="XML"
                type="translate"
                from="0 0"
                to="0 0"
                values="0 0; -4 0; 4 0; 0 0;"
                keyTimes="0;0.3;0.6;1"
                dur="12s"
                repeatCount="indefinite"
              />
            </path>
            <path d="M73.212 36.163c-1.587 8.204-12.173 8.998-30.434 8.998-18.26 0-28.846-.662-30.434-8.998-1.72-8.866 12.174-14.82 30.434-14.82s32.155 5.954 30.434 14.82" fill="#3680a4" fill-opacity=".5">
              <animateTransform attributeName="transform"
                attributeType="XML"
                type="translate"
                from="0 0"
                to="0 0"
                values="0 0; -3 0; 3 0; 0 0;"
                keyTimes="0;0.3;0.6;1"
                dur="12s"
                begin="1s"
                repeatCount="indefinite"
              />
            </path>

            <path d="M65.43 34.637c-1.2 6.2-9.2 6.8-23 6.8s-21.8-.5-23-6.8c-1.3-6.7 9.2-11.2 23-11.2s24.3 4.5 23 11.2" fill="#3680a4">
              <animateTransform attributeName="transform"
                attributeType="XML"
                type="translate"
                from="0 0"
                to="0 0"
                values="0 0; -2 0; 2 0; 0 0;"
                keyTimes="0;0.3;0.6;1"
                dur="12s"
                begin="2s"
                repeatCount="indefinite"
              />
            </path>
          </g>

          <path d="M63.43 33.737c-1.4 5.1-9.4 4.7-21 4.7s-19.6.4-21-4.7c-1.6-5.9 9.4-12.3 21-12.3s22.6 6.4 21 12.3" fill="#ffdd7d"/>
          <path d="M52.43 30.537c0 2-3.2.3-5 1-1.8.7-2.2 2.1-5 2.1-2.7 0-3.2-1.3-5-2.1-1.8-.7-5 .9-5-1 0-2.3 4.5-6.9 10-6.9s10 4.6 10 6.9" fill="#83bf4f"/>
          <path d="M48.43 28.437c0 1.1-2.1 1-6 1s-6 .1-6-1 2.1-3 6-3 6 1.9 6 3" fill="#75a843"/>
          <path d="M44.518 27.055s2-10.3-6.2-19.4l-1.8.9s5 3.2 5 18.5c0 0 1.5 1.3 3 0" fill="#dbb471"/>
          <path d="M33.918 6.355c1 0 1.9.2 2.7.7-.3-.8-.4-1.8-.2-2.8.5-2.8 3-4.6 5.6-4.2.3.1.6.1.9.3-2.1.1-4.1 2.2-4.6 4.9-.3 1.6-.1 3.3.6 4.5-1.1-.9-2.6-1.4-4.2-1.4-2.8 0-5.2 1.6-5.7 3.6-.1-.3-.1-.6-.1-.9-.1-2.6 2.1-4.7 5-4.7" fill="#699635"/>
          <path d="M41.718 5.055c-.2.1-.5.2-.7.3l.2-.2c2.6-2.2 6-2.6 8.1-1.1-.2-.3-.4-.7-.6-1-2-2.4-5.8-2.6-8.4-.4-1.9 1.6-2.7 4.1-2.1 6.3-2-.9-4.6-.6-6.5 1-2.6 2.2-3.1 5.9-1 8.4.3.3.5.6.8.8-1.1-2.3-.2-5.6 2.4-7.8l.2-.2c-.2.2-.3.4-.4.6-1.3 2.4-.7 5.3 1.5 6.6.3.2.6.3.8.4-1.5-1.4-1.8-4.2-.3-6.5 1.4-2.1 3.7-1.6 3.7-1.6s0-2.6 2.5-3.7c2.7-1.2 5.2-.1 6.4 1.6 0-.3-.1-.6-.2-.9-1.1-2.3-3.9-3.5-6.4-2.6" fill="#83bf4f"/>
          <g fill="#89664c">
            <path d="M45.018 22.855s.2 2-2 2c-1.6 0-2-2-2-2h4M44.418 18.855s.5 1.7-1.7 2c-1.6.2-2.3-1.4-2.3-1.4l4-.6M43.418 14.855s.5 1.7-1.7 2c-1.6.2-2.3-1.4-2.3-1.4l4-.6M41.818 10.855s.9 1.3-1.2 1.9c-1.5.4-2.6-.9-2.6-.9l3.8-1"/>
          </g>
        </g>
        <g id="astronaut2" transform="translate(305 177) rotate(43 150 150) scale(.73)">

          <g id="leg2" transform="rotate(-80 114 110)">
            <path d="M111.702 150.054l6.237-6.227a22.876 22.876 0 0 1 2.22-1.952l.005.006c.737 2.034 14.454-11.588 15.196-13.64-11.26-11.24-17.084-17.331.139-.138l21.893 21.856.094.095.424.423 5.36 5.35-.937.935-21.955 21.918-5.783-5.773" fill="#E6E6E6" fill-rule="nonzero"/>
            <path fill="#FF9A09" fill-rule="nonzero" d="M191.803 168.845l-30.655 30.597-5.983-5.974 30.419-30.373.23-.23z"/>
            <path d="M185.813 162.865l-.23.23-30.418 30.373-8.987-8.972.011-.012-5.813-5.803 21.955-21.919.937-.934 5.813 5.803c4.276-4.275 11.213-4.275 15.495 0l1.237 1.234z" fill="#CCC" fill-rule="nonzero"/>
          </g>

          <path d="M62.673 135.949c3.952-5.416 3.652-12.97-.895-18.068l.023-.018 13.881-13.858h14.93c1.013 0 2.002.095 2.962.277l-.053.293v30.597l.153.86c-.99.193-2.014.293-3.062.293H66.859c-1.43 0-2.826-.13-4.186-.376z" fill="#FFF" fill-rule="nonzero"/>
          <path d="M43.309 106.681V69.052l.454-1.194a34.032 34.032 0 0 0 11.961 2.158 34 34 0 0 0 19.96-6.444v40.433l-13.882 13.858-.023.018a11.207 11.207 0 0 0-.578-.618c-4.823-4.815-12.203-5.509-17.774-2.092a23.948 23.948 0 0 1-.118-2.358v-6.132z" fill="#FFF" fill-rule="nonzero"/>

          <path d="M161.608 114.036l-18.975 18.938-.04-.041-5.95 5.938c-17.28 17.251-45.277 17.251-62.556 0l-2.55-2.545h19.076c1.048 0 1.013-32.32 0-32.32h-14.93V63.572a35.066 35.066 0 0 0 4.706-4.098l1.255.218 44.306 44.238 10.589-10.571 2.178-2.176 6.237-6.226a22.876 22.876 0 0 1 2.22-1.952l.006.006a15.198 15.198 0 0 0 3.57 5.592c5.977 5.967 15.671 5.967 21.648 0a15.242 15.242 0 0 0 3.593-5.639c.79.606 1.549 1.27 2.273 1.993l6.143 6.13.094.095.424.423 5.36 5.35-.937.935-21.955 21.918-5.785-5.772z" fill="#F2F2F2" fill-rule="nonzero"/>
          <path fill="#FF9A09" fill-rule="nonzero" d="M218.818 109.974l-30.654 30.597-5.984-5.974 30.419-30.373.23-.23z"/>
          <path d="M175.99 82.963a15.235 15.235 0 0 1-3.592 5.638c-5.978 5.968-15.672 5.968-21.65 0a15.206 15.206 0 0 1-3.568-5.591l-.006-.006a23.173 23.173 0 0 1 3.233-2.117 23.659 23.659 0 0 1 14.623-2.569 23.426 23.426 0 0 1 10.96 4.645zM61.778 117.881c4.546 5.098 4.846 12.654.895 18.068-10.254-1.828-18.204-10.289-19.246-20.778 5.571-3.416 12.95-2.722 17.774 2.093.2.2.394.406.577.617z" fill="#00B35D" fill-rule="nonzero"/>
          <path d="M212.829 103.994l-.23.23-30.419 30.373-8.987-8.972.012-.012-5.813-5.803 21.955-21.919.936-.935 5.813 5.804c4.276-4.275 11.214-4.275 15.496 0l1.237 1.234z" fill="#CCC" fill-rule="nonzero"/>
          <path d="M81.642 59.691l-1.254-.217A34.007 34.007 0 0 0 88.48 45.38l10.983 10.971h.006l22.386 22.354h.006l1.925 1.923v.005l12.75 12.724-10.588 10.571-44.306-44.237z" fill="#E6E6E6" fill-rule="nonzero"/>
          <g id="arm2">
            <animateTransform attributeName="transform"
              attributeType="XML"
              type="translate"
              from="0 0"
              to="0 0"
              values="0 0; -10 -5; -5 0; 0 0;"
              keyTimes="0;0.3;0.6;1"
              dur="7s"
              begin="3s"
              repeatCount="indefinite"
            />
            <path fill="#E6E6E6" fill-rule="nonzero" d="M93.93 60.99l29.448-11.043 8.245-22.342 21.791 6.468-9.423 32.925-27.67 16.346"/>
            <path d="M131.623 27.605l-4.994-7.655c-1.298-1.99.132-4.625 2.512-4.625h2.716l3.456-7.907c2.066-4.728 7.322-7.195 12.288-5.768l1.97.566c5.04 1.448 8.185 6.447 7.303 11.608l-3.46 20.249-21.79-6.468z" fill="#00B35D" fill-rule="nonzero"/>
            <g id="pole" transform="translate(-580 -235) scale(11)" fill="none">
              <path d="M62.61 34.049c.26-9.386.88-14.853 6.413-21.414" stroke="#b3b09f" stroke-width=".5" strokeLinecap="round"/>
              <path d="M69.18 12.555c-1.345 3.663-4.72 7.26-4.785 9.593-.105 3.842-1.89 6-1.373 10.694m6.158-20.287c3.493 1.402 12.695 6.536 13.118 8.982.684 3.96 1.803 4.146 3.84 5.41" stroke="#fff" stroke-width=".1"/>
            </g>
          </g>
          <path d="M93.575 104.282l4.92-4.912c1.476-1.474 4.003-.43 4.003 1.656v4.842l4.265.39c4.873.446 8.604 4.526 8.604 9.412v7.804a9.454 9.454 0 0 1-7.527 9.25l-17.227 3.6v-32.32" fill="#00B35D" fill-rule="nonzero"/>
          <ellipse fill="#F2F2F2" fill-rule="nonzero" cx="55.887" cy="37.669" rx="35.042" ry="34.983"/>
          <ellipse fill="#0CBEDB" fill-rule="nonzero" transform="rotate(-107.687 54.144 33.204)" cx="54.144" cy="33.204" rx="24.663" ry="30.278"/>
          <ellipse fill="#73D5EF" fill-rule="nonzero" transform="rotate(-100.591 72.838 31.178)" cx="72.838" cy="31.178" rx="9.424" ry="6.762"/>

        </g>
        <g id="alienfish" transform="translate(100 470) rotate(-30 90 0) scale(3.2)">

          <g>
            <animateTransform attributeName="transform"
              attributeType="XML"
              id="jump"
              type="rotate"
              from="0 90 5"
              to="-140 90 5"
              dur=".6s"
              begin="planetJump.end+6s;jump.end+7s"
            />
            <g opacity="0">
              <animate attributeName="opacity"
                attributeType="XML"
                from="0"
                to="0"
                values="0; 1; 1; 0;"
                keyTimes="0;0.2;0.9;1"
                dur=".6s"
                begin="planetJump.end+6s;jump.end+7s"
                end="jump+7.6s"
                fill="remove"
              />
              <circle cx="111.231" cy="12.196" r="2.044" fill="#00599f"/>
              <circle cx="107.952" cy="11.914" r="2.044" fill="#00599f"/>
              <path d="M114.94-2.88a6 6 0 0 0-12-.176c6.093 23.765 8.273 20.835 12 .176z" fill="#8abed2"/>
              <circle r="2.044" cy="13.949" cx="109.688" fill="#00599f"/>
              <path d="M112.971-1.096a3.867 3.867 0 0 0-7.732-.113c3.926 15.314 5.33 13.426 7.732.113z" fill="#cdeaf3"/>
              <path d="M114.94-2.88a6 6 0 0 0-12-.176c.764 3.285 10.572 4.221 12 .176z" fill="#ececec"/>
              <path d="M108.75-7.074a2.672 2.672 0 0 0-2.678 2.677v3.735c1.733.51 3.87.616 5.637.185v-3.92a2.672 2.672 0 0 0-2.678-2.677h-.28z" fill="#87d86d"/>
              <path d="M108.75-7.074a2.672 2.672 0 0 0-2.678 2.677v3.735a11.6 11.6 0 0 0 2.834.445v-6.857h-.156z" fill="#73aa61"/>
              <circle r="1.895" cy="-4.323" cx="108.941" fill="#fff"/>
              <circle cx="108.941" cy="-4.278" r="1.131"/>
              <path d="M109.358-5.066l-.035.33c.193.115.25.311.305.51.107-.297-.04-.572-.27-.84z" fill="#fff" fill-rule="evenodd"/>
            </g>
          </g>
        </g>
      </g>
    </g>
  </g>

  <g id="astronaut" transform="translate(150.563 199.61)">
    <g>
      <animateTransform attributeName="transform"
        attributeType="XML"
        type="translate"
        from="0 0"
        to="120 -100"
        dur="24s"
        values="0 0; 25 -50; 120 -100;"
        keyTimes="0;0.2;1"
        repeatCount="0"
        fill="freeze"
      />
      <g>
        <animateTransform attributeName="transform"
          attributeType="XML"
          type="scale"
          from="1 1"
          to="0 0"

          dur="62s"
          repeatCount="0"
          fill="freeze"
        />
        <g>
          <animateTransform attributeName="transform"
            attributeType="XML"
            type="rotate"
            from="0 110 120"
            to="360 110 120"
            dur="20s"
            begin="0s"
            repeatCount="indefinite"
          />
          <g id="arm">
            <animateTransform attributeName="transform"
              attributeType="XML"
              type="translate"
              from="0 0"
              to="0 0"
              values="0 0; -20 -10; -10 0; 0 0;"
              keyTimes="0;0.3;0.6;1"
              dur="7s"
              begin="3s"
              repeatCount="indefinite"
            />
            <path fill="#E6E6E6" fill-rule="nonzero" d="M93.93 60.99l29.448-11.043 8.245-22.342 21.791 6.468-9.423 32.925-27.67 16.346"/>
            <path d="M131.623 27.605l-4.994-7.655c-1.298-1.99.132-4.625 2.512-4.625h2.716l3.456-7.907c2.066-4.728 7.322-7.195 12.288-5.768l1.97.566c5.04 1.448 8.185 6.447 7.303 11.608l-3.46 20.249-21.79-6.468z" fill="#00B35D" fill-rule="nonzero"/>
          </g>
          <g id="leg">
            <animateTransform attributeName="transform"
              attributeType="XML"
              type="translate"
              from="0 0"
              to="0 0"
              values="0 0; 0 -20; 0 0;"
              keyTimes="0;0.5;1"
              dur="8s"
              begin="2s"
              repeatCount="indefinite"
            />
            <path d="M111.702 150.054l6.237-6.227a22.876 22.876 0 0 1 2.22-1.952l.005.006c.737 2.034 14.454-11.588 15.196-13.64-11.26-11.24-17.084-17.331.139-.138l21.893 21.856.094.095.424.423 5.36 5.35-.937.935-21.955 21.918-5.783-5.773" fill="#E6E6E6" fill-rule="nonzero"/>
            <path fill="#FF9A09" fill-rule="nonzero" d="M191.803 168.845l-30.655 30.597-5.983-5.974 30.419-30.373.23-.23z"/>
            <path d="M185.813 162.865l-.23.23-30.418 30.373-8.987-8.972.011-.012-5.813-5.803 21.955-21.919.937-.934 5.813 5.803c4.276-4.275 11.213-4.275 15.495 0l1.237 1.234z" fill="#CCC" fill-rule="nonzero"/>
          </g>
          <path d="M21.66 36.003c0-1.4.082-2.775.247-4.133L4.574 49.18c-5.548 5.538-5.548 14.516 0 20.055l7.992 7.972 7.05 7.038 22.473 22.436h1.22V69.052l.454-1.194c-12.91-4.832-22.104-17.274-22.104-31.855z" fill="#CCC" fill-rule="nonzero"/>
          <path d="M62.673 135.949c3.952-5.416 3.652-12.97-.895-18.068l.023-.018 13.881-13.858h14.93c1.013 0 2.002.095 2.962.277l-.053.293v30.597l.153.86c-.99.193-2.014.293-3.062.293H66.859c-1.43 0-2.826-.13-4.186-.376z" fill="#FFF" fill-rule="nonzero"/>
          <path d="M43.309 106.681V69.052l.454-1.194a34.032 34.032 0 0 0 11.961 2.158 34 34 0 0 0 19.96-6.444v40.433l-13.882 13.858-.023.018a11.207 11.207 0 0 0-.578-.618c-4.823-4.815-12.203-5.509-17.774-2.092a23.948 23.948 0 0 1-.118-2.358v-6.132z" fill="#FFF" fill-rule="nonzero"/>
          <path d="M161.608 114.036l-18.975 18.938-.04-.041-5.95 5.938c-17.28 17.251-45.277 17.251-62.556 0l-2.55-2.545h19.076c1.048 0 1.013-32.32 0-32.32h-14.93V63.572a35.066 35.066 0 0 0 4.706-4.098l1.255.218 44.306 44.238 10.589-10.571 2.178-2.176 6.237-6.226a22.876 22.876 0 0 1 2.22-1.952l.006.006a15.198 15.198 0 0 0 3.57 5.592c5.977 5.967 15.671 5.967 21.648 0a15.242 15.242 0 0 0 3.593-5.639c.79.606 1.549 1.27 2.273 1.993l6.143 6.13.094.095.424.423 5.36 5.35-.937.935-21.955 21.918-5.785-5.772z" fill="#F2F2F2" fill-rule="nonzero"/>
          <path fill="#FF9A09" fill-rule="nonzero" d="M218.818 109.974l-30.654 30.597-5.984-5.974 30.419-30.373.23-.23z"/>
          <path d="M175.99 82.963a15.235 15.235 0 0 1-3.592 5.638c-5.978 5.968-15.672 5.968-21.65 0a15.206 15.206 0 0 1-3.568-5.591l-.006-.006a23.173 23.173 0 0 1 3.233-2.117 23.659 23.659 0 0 1 14.623-2.569 23.426 23.426 0 0 1 10.96 4.645zM61.778 117.881c4.546 5.098 4.846 12.654.895 18.068-10.254-1.828-18.204-10.289-19.246-20.778 5.571-3.416 12.95-2.722 17.774 2.093.2.2.394.406.577.617z" fill="#00B35D" fill-rule="nonzero"/>
          <path d="M212.829 103.994l-.23.23-30.419 30.373-8.987-8.972.012-.012-5.813-5.803 21.955-21.919.936-.935 5.813 5.804c4.276-4.275 11.214-4.275 15.496 0l1.237 1.234z" fill="#CCC" fill-rule="nonzero"/>
          <path d="M81.642 59.691l-1.254-.217A34.007 34.007 0 0 0 88.48 45.38l10.983 10.971h.006l22.386 22.354h.006l1.925 1.923v.005l12.75 12.724-10.588 10.571-44.306-44.237z" fill="#E6E6E6" fill-rule="nonzero"/>
          <path fill="#FF9A09" fill-rule="nonzero" d="M31.241 72.644l-.53.523-9.865 9.849-1.23 1.23-7.05-7.04 1.23-1.228 9.865-9.848.53-.523z"/>

          <path d="M93.575 104.282l4.92-4.912c1.476-1.474 4.003-.43 4.003 1.656v4.842l4.265.39c4.873.446 8.604 4.526 8.604 9.412v7.804a9.454 9.454 0 0 1-7.527 9.25l-17.227 3.6v-32.32" fill="#00B35D" fill-rule="nonzero"/>
          <ellipse fill="#F2F2F2" fill-rule="nonzero" cx="55.887" cy="37.669" rx="35.042" ry="34.983"/>
          <ellipse fill="#0CBEDB" fill-rule="nonzero" transform="rotate(-107.687 54.144 33.204)" cx="54.144" cy="33.204" rx="24.663" ry="30.278"/>
          <ellipse fill="#73D5EF" fill-rule="nonzero" transform="rotate(-100.591 72.838 31.178)" cx="72.838" cy="31.178" rx="9.424" ry="6.762"/>

          <path stroke="#373434" fill="#373434" d="M23.953 87.93l2.569-2.001 3.602.46 2.359-3.123 2.019 3.778 3.041-.395.793 5.632-3.834 1.752v4.427z"/>
        </g>
      </g>
    </g>
  </g>
</svg>
