<svg xmlns="http://www.w3.org/2000/svg" width="200" height="200"><path d="M87.684 199.224c-21.033-2.455-41.743-12.488-57.599-27.906-40.113-39.006-40.113-103.652 0-142.658C57.57 1.934 96.563-6.788 132.888 5.664c8.564 2.936 12.138 4.702 21.043 10.4l6.904 4.419-2.518 3.25c-1.385 1.787-6.62 8.567-11.635 15.067l-9.117 11.817-2.392-1.688c-9.309-6.57-23.021-10.826-34.809-10.802-10.679.022-18.73 1.934-28.55 6.782-20.666 10.201-33.821 31.626-33.821 55.08 0 23.454 13.155 44.878 33.82 55.08 9.821 4.848 17.872 6.76 28.551 6.782 22.784.046 44.306-13.29 54.58-33.817l4.234-8.458-29.447-.235-29.447-.234v-38.26H200l-.007 11.352c-.018 27.11-4.787 44.648-17.202 63.25-20.888 31.301-57.522 48.163-95.107 43.775z" fill="#fefcf9"/></svg>