<?xml version="1.0" encoding="UTF-8" standalone="no"?>
<!-- Created with Inkscape (http://www.inkscape.org/) -->

<svg
   xmlns:dc="http://purl.org/dc/elements/1.1/"
   xmlns:cc="http://creativecommons.org/ns#"
   xmlns:rdf="http://www.w3.org/1999/02/22-rdf-syntax-ns#"
   xmlns:svg="http://www.w3.org/2000/svg"
   xmlns="http://www.w3.org/2000/svg"
   xmlns:sodipodi="http://sodipodi.sourceforge.net/DTD/sodipodi-0.dtd"
   xmlns:inkscape="http://www.inkscape.org/namespaces/inkscape"
   width="36.281826mm"
   height="26.850859mm"
   viewBox="0 0 128.55765 95.140837"
   id="svg4618"
   version="1.1"
   inkscape:version="0.91 r13725"
   sodipodi:docname="dag.svg">
  <defs
     id="defs4620" />
  <sodipodi:namedview
     id="base"
     pagecolor="#ffffff"
     bordercolor="#666666"
     borderopacity="1.0"
     inkscape:pageopacity="0.0"
     inkscape:pageshadow="2"
     inkscape:zoom="0.35"
     inkscape:cx="375"
     inkscape:cy="520"
     inkscape:document-units="px"
     inkscape:current-layer="layer1"
     showgrid="false"
     fit-margin-top="0"
     fit-margin-left="0"
     fit-margin-right="0"
     fit-margin-bottom="0" />
  <metadata
     id="metadata4623">
    <rdf:RDF>
      <cc:Work
         rdf:about="">
        <dc:format>image/svg+xml</dc:format>
        <dc:type
           rdf:resource="http://purl.org/dc/dcmitype/StillImage" />
        <dc:title></dc:title>
      </cc:Work>
    </rdf:RDF>
  </metadata>
  <g
     inkscape:label="Layer 1"
     inkscape:groupmode="layer"
     id="layer1"
     transform="translate(-298.57831,-473.36322)">
    <path
       d="m 315.27473,477.30718 c 2.80686,-3.4952 7.84007,-4.8694 12.28126,-3.2997 l 93.08861,38.8456 c 3.83765,1.8416 6.47401,5.5629 6.49127,9.5712 0.0173,4.0083 -2.38533,7.7677 -6.41075,9.1344 l -93.36998,36.24818 c -4.62894,1.6384 -9.67366,0.3404 -12.31001,-3.3809 -2.63637,-3.72118 -2.85863,-8.52968 0.14748,-12.56088 0.80278,-0.8078 1.2013,-1.8797 2.00408,-2.6875 5.60797,-8.3266 8.79033,-18.2382 8.74431,-28.927 -0.046,-10.6889 -3.11541,-21.3549 -9.40169,-30.1259 -0.40426,-0.2642 -0.60927,-1.0643 -1.01355,-1.3285 -1.4178,-1.5927 -2.03282,-3.9931 -2.2436,-6.1293 -0.006,-1.3361 0.79129,-3.48 1.99257,-5.3597 z"
       id="path33-1-9-8-64-6-5-5-6"
       inkscape:connector-curvature="0"
       style="fill:#302c43;fill-opacity:1" />
    <ellipse
       style="opacity:1;fill:#fefcf9;fill-opacity:1;stroke:none;stroke-width:3.81699991;stroke-linecap:butt;stroke-linejoin:miter;stroke-miterlimit:4;stroke-dasharray:11.451, 11.451;stroke-dashoffset:0;stroke-opacity:1"
       id="path3384-0-2-9-7-7-1-9-6"
       cx="355.82605"
       cy="520.93359"
       rx="18.591103"
       ry="19.04826" />
    <ellipse
       style="opacity:1;fill:#ff9a09;fill-opacity:1;stroke:none;stroke-width:3.81699991;stroke-linecap:butt;stroke-linejoin:miter;stroke-miterlimit:4;stroke-dasharray:11.451, 11.451;stroke-dashoffset:0;stroke-opacity:1"
       id="path3384-0-2-9-3-6-5-9-8-8-8"
       cx="513.92578"
       cy="-311.47485"
       rx="26.987232"
       ry="7.9108238"
       transform="matrix(-0.00954257,0.99995447,-0.99974517,-0.0225741,0,0)" />
  </g>
</svg>
