<svg xmlns="http://www.w3.org/2000/svg" width="175" height="175"><g fill="none"><g transform="translate(32.9 28.975)"><path d="M.7.7s3.5 3.4 8.7 8.6c5.2 5.2 12.2 12.1 19.1 19 6.9 7 13.8 13.9 19 19.1 5.2 5.2 8.6 8.7 8.6 8.7s-3.5-3.4-8.7-8.6c-5.2-5.2-12.2-12.1-19.1-19-6.9-7-13.8-13.9-19-19.1C4.2 4.2.7.7.7.7z" fill="#ca6d54"/><path d="M.7 111.7s3.5-3.5 8.6-8.7c5.2-5.2 12.1-12.2 19-19.1 7-6.9 13.9-13.8 19.1-19 5.2-5.2 8.7-8.6 8.7-8.6s-3.4 3.5-8.6 8.7c-5.2 5.2-12.1 12.2-19 19.1-7 6.9-13.9 13.8-19.1 19-5.2 5.2-8.7 8.6-8.7 8.6z" fill="#5e86a0"/><path d="M111.7 111.7s-3.5-3.4-8.7-8.6c-5.2-5.2-12.2-12.1-19.1-19-6.9-7-13.8-13.9-19-19.1-5.2-5.2-8.6-8.7-8.6-8.7s3.5 3.4 8.7 8.6c5.2 5.2 12.2 12.1 19.1 19 6.9 7 13.8 13.9 19 19.1 5.2 5.3 8.6 8.7 8.6 8.7z" fill="#aba35a"/><path d="M111.7.7s-3.4 3.5-8.6 8.7c-5.2 5.2-12.1 12.2-19 19.1-7 6.9-13.9 13.8-19.1 19-5.2 5.2-8.7 8.6-8.7 8.6s3.4-3.5 8.6-8.7c5.2-5.2 12.1-12.2 19-19.1 7-6.9 13.9-13.8 19.1-19 5.2-5.1 8.7-8.6 8.7-8.6z" fill="#5d8b70"/><path d="M59.1 53.4l-2.9 2.8c9.1 21.5 18.6 20.3 18.6 20.3l17.9-17.9C105.3 46.8 109.3 17 111.6.7L85.3 27 59.1 53.4zm32.9 6c.2-.2.4-.3.5-.5-.2.1-.4.3-.5.5z" fill="#0d9ead"/><path d="M53.4 53.4l2.8 2.8c21.5-9.1 20.3-18.6 20.3-18.6L58.6 19.7C46.8 7 17 3 .7.7L27 27.1l26.4 26.3zm5.9-32.9c-.2-.2-.3-.4-.5-.5.2.1.4.3.5.5z" fill="#ef3a2f"/><path d="M76.5 37.6l-18-18c7.1 7.6 7.6 18.4-5.2 33.8l2.8 2.8c21.6-9 20.4-18.6 20.4-18.6z" fill="#d62027"/><path d="M53.4 59.1l2.8-2.9c-9.1-21.5-18.6-20.3-18.6-20.3L19.7 53.8C7.1 65.6 3.1 95.4.8 111.7l26.3-26.3 26.3-26.3zm-32.9-6c-.2.2-.4.3-.5.5.1-.2.3-.3.5-.5z" fill="#f89a1c"/><path d="M37.6 35.9l-18 18c7.6-7.1 18.4-7.6 33.8 5.2l2.8-2.9c-9.1-21.5-18.6-20.3-18.6-20.3z" fill="#e47325"/><path d="M59.1 59.1l-2.9-2.9c-21.5 9.1-20.3 18.6-20.3 18.6l17.9 17.9c11.8 12.6 41.6 16.6 57.9 18.9L85.4 85.3 59.1 59.1zm-6 32.9c.2.2.3.4.5.5-.2-.1-.3-.3-.5-.5z" fill="#00B35D"/><path d="M35.9 74.9l18 18c-7.1-7.6-7.6-18.4 5.2-33.8l-2.9-2.9c-21.5 9.1-20.3 18.7-20.3 18.7z" fill="#009656"/><path d="M74.9 76.6l18-18c-7.6 7.1-18.4 7.6-33.8-5.2l-2.9 2.8c9.1 21.6 18.7 20.4 18.7 20.4z" fill="#1084aa"/><circle transform="rotate(-45 56.171 56.187)" cx="56.171" cy="56.187" r="5.2" fill="#302c43"/></g><g transform="translate(10.9 -.025)"><g fill="#f89a1c"><path d="M96.8 13.7c1.6 1.3 4.2 1.3 5.8 0l4.3-3.4c1.6-1.3 1.8-1 .5.5l-3.5 4.2c-1.3 1.6-1.3 4.2 0 5.8l3.4 4.2c1.3 1.6 1.1 1.8-.5.5l-4.2-3.4c-1.6-1.3-4.2-1.3-5.9-.1l-5.2 4c-1.6 1.3-1.8 1-.4-.5l4.2-4.6c1.4-1.5 1.5-4.1.2-5.7L92 10.9c-1.3-1.6-1-1.9.6-.6l4.2 3.4z"/><path d="M94.2 16.7c2.1-.1 3.9-1.9 4.1-3.9l1.1-11.2c.2-2.1.5-2.1.8 0l1.2 11.2c.2 2 2.1 3.9 4.1 4.1l9.2.9c2.1.2 2 .5 0 .7l-9.2.7c-2.1.2-3.9 2-4.1 4l-1.3 13.4c-.2 2.1-.5 2.1-.7 0l-1.2-13.2c-.2-2.1-2-3.9-4.1-4l-15.6-1.2c-2.1-.2-2.1-.4 0-.5l15.7-1z"/></g><path d="M30.3 63.3s0-.1 0 0c-1.7-.1-6-.4-8-2.5-2.1-2.1-2.5-6.4-2.6-8.1-.1 1.7-.5 6-2.6 8.1-2.1 2.1-6.3 2.4-8 2.5 1.7 0 5.9.4 8 2.5 2.1 2.1 2.5 6.4 2.6 8.1.1-1.7.5-6 2.6-8.1 2.1-2.1 6.3-2.5 8-2.5.1 0 0 0 0 0" fill="#777572"/><path d="M75.6 151.3c-1.4 0-5-.3-6.7-2.1-1.7-1.7-2.1-5.3-2.1-6.8-.1 1.5-.4 5-2.1 6.8-1.7 1.7-5.3 2-6.7 2.1 1.4 0 4.9.3 6.7 2.1 1.7 1.7 2.1 5.3 2.1 6.8.1-1.5.4-5 2.1-6.8 1.7-1.8 5.2-2.1 6.7-2.1" fill="#08a6d1"/><circle cx="136.1" cy="110.2" r="4.6" fill="#ef3a2f"/><circle cx="3.9" cy="90.3" r="3.4" fill="#00B35D"/></g></g></svg>