<?xml version="1.0" encoding="UTF-8" standalone="no"?>
<!-- Generator: Adobe Illustrator 21.1.0, SVG Export Plug-In . SVG Version: 6.00 Build 0)  -->

<svg
   xmlns:dc="http://purl.org/dc/elements/1.1/"
   xmlns:cc="http://creativecommons.org/ns#"
   xmlns:rdf="http://www.w3.org/1999/02/22-rdf-syntax-ns#"
   xmlns:svg="http://www.w3.org/2000/svg"
   xmlns="http://www.w3.org/2000/svg"
   xmlns:sodipodi="http://sodipodi.sourceforge.net/DTD/sodipodi-0.dtd"
   xmlns:inkscape="http://www.inkscape.org/namespaces/inkscape"
   version="1.1"
   x="0px"
   y="0px"
   viewBox="0 0 170 170.00001"
   xml:space="preserve"
   id="svg2"
   inkscape:version="0.91 r13725"
   sodipodi:docname="airflow_ring.svg"
   width="170"
   height="170"><metadata
     id="metadata100"><rdf:RDF><cc:Work
         rdf:about=""><dc:format>image/svg+xml</dc:format><dc:type
           rdf:resource="http://purl.org/dc/dcmitype/StillImage" /><dc:title></dc:title></cc:Work></rdf:RDF></metadata><defs
     id="defs98"><clipPath
       clipPathUnits="userSpaceOnUse"
       id="clipPath4262"><circle
         style="opacity:1;fill:#ffffff;fill-opacity:1;stroke:none;stroke-width:5;stroke-linecap:butt;stroke-linejoin:miter;stroke-miterlimit:4;stroke-dasharray:none;stroke-dashoffset:0;stroke-opacity:1"
         id="circle4264"
         cx="178"
         cy="175.14999"
         r="85" /></clipPath><linearGradient
       gradientUnits="userSpaceOnUse"
       x2="124.95509"
       gradientTransform="scale(1.7662345,0.56617623)"
       id="linearGradient4527"
       y2="130.02979"
       y1="130.02979"
       x1="0.27389899"><stop
         id="stop4529"
         offset="0%"
         stop-color="#F4362C" /><stop
         id="stop4531"
         offset="0.60000002"
         stop-color="#FF9A09" /></linearGradient><clipPath
       clipPathUnits="userSpaceOnUse"
       id="clipPath4262-9"><circle
         style="opacity:1;fill:#ffffff;fill-opacity:1;stroke:none;stroke-width:5;stroke-linecap:butt;stroke-linejoin:miter;stroke-miterlimit:4;stroke-dasharray:none;stroke-dashoffset:0;stroke-opacity:1"
         id="circle4264-7"
         cx="178"
         cy="175.14999"
         r="85" /></clipPath><clipPath
       clipPathUnits="userSpaceOnUse"
       id="clipPath4262-4"><circle
         style="opacity:1;fill:#ffffff;fill-opacity:1;stroke:none;stroke-width:5;stroke-linecap:butt;stroke-linejoin:miter;stroke-miterlimit:4;stroke-dasharray:none;stroke-dashoffset:0;stroke-opacity:1"
         id="circle4264-0"
         cx="178"
         cy="175.14999"
         r="85" /></clipPath></defs><sodipodi:namedview
     pagecolor="#ffffff"
     bordercolor="#666666"
     borderopacity="1"
     objecttolerance="10"
     gridtolerance="10"
     guidetolerance="10"
     inkscape:pageopacity="0"
     inkscape:pageshadow="2"
     inkscape:window-width="640"
     inkscape:window-height="480"
     id="namedview96"
     showgrid="false"
     fit-margin-top="0"
     fit-margin-left="0"
     fit-margin-right="0"
     fit-margin-bottom="0"
     inkscape:current-layer="svg2" /><style
     type="text/css"
     id="style4">
	.st0{display:none;}
	.st1{display:inline;}
	.st2{fill:#3CAAFF;}
	.st3{fill:#008A03;}
	.st4{fill:#03B803;}
	.st5{fill:#02E83E;}
	.st6{fill:#008BC4;}
	.st7{fill:#04E8FD;}
	.st8{fill:#00FFFE;}
	.st9{display:inline;fill:#961502;}
	.st10{fill:#DF1D01;}
	.st11{fill:#DE2802;}
	.st12{display:inline;fill:#3B73ED;}
	.st13{fill:#7DC1FF;}
	.st14{fill:#4CACED;}
	.st15{fill:#138713;}
	.st16{fill:#1DB71D;}
	.st17{fill:#24E050;}
	.st18{fill:#1A90B5;}
	.st19{fill:#26E6EF;}
	.st20{fill:#2BF7F1;}
	.st21{fill:#932216;}
	.st22{fill:#D62816;}
	.st23{fill:#D8391E;}
	.st24{fill:#4E7CCE;}
	.st25{fill:#86BFEA;}
	.st26{fill:#302C43;}
</style><g
     id="Layer_1"
     class="st0"
     style="display:none"
     transform="translate(-93,-90.149994)"><g
       class="st1"
       id="g7"
       style="display:inline"><path
         class="st2"
         d="m 179.2,171.5 c -71.7,6.9 -124.4,49.8 -145.4,69.8 0,37.4 0,101.7 0,101.7 l 145.4,-159.5 0,-12 z"
         id="path9"
         inkscape:connector-curvature="0"
         style="fill:#3caaff" /></g><g
       class="st1"
       id="g11"
       style="display:inline"><path
         class="st3"
         d="m 189.2,307.2 c 5.4,4 20.5,13.1 44.7,13.1 4.2,0 9.4,0 15.3,0 -20,-21 -62.9,-73.7 -69.8,-145.4 0,0.1 -28.4,78.2 9.8,132.3 z"
         id="path13"
         inkscape:connector-curvature="0"
         style="fill:#008a03" /><g
         id="g15"><path
           class="st4"
           d="m 179.4,175 c 6.9,71.7 49.8,124.4 69.8,145.4 37.4,0 101.7,0 101.7,0 L 191.4,175 l -12,0 z"
           id="path17"
           inkscape:connector-curvature="0"
           style="fill:#03b803" /></g><g
         id="g19"><path
           class="st5"
           d="m 186.9,305.4 c 0,0 0.8,0.7 2.3,1.9 C 151,253.1 179.4,175 179.4,175 l 0.1,-1.4 c -21.7,-1.1 -67,3.7 -81.6,58.8 l 89,73 z"
           id="path21"
           inkscape:connector-curvature="0"
           style="fill:#02e83e" /></g></g><g
       class="st1"
       id="g23"
       style="display:inline"><path
         class="st6"
         d="m 310.7,166.3 c 4,-5.4 13.1,-20.5 13.1,-44.7 0,-4.2 0,-9.4 0,-15.3 -21,20 -73.7,62.9 -145.4,69.8 0.1,0 78.2,28.5 132.3,-9.8 z"
         id="path25"
         inkscape:connector-curvature="0"
         style="fill:#008bc4" /><g
         id="g27"><path
           class="st7"
           d="m 178.5,176.1 c 71.7,-6.9 124.4,-49.8 145.4,-69.8 0,-37.4 0,-101.7 0,-101.7 l -145.4,159.5 0,12 z"
           id="path29"
           inkscape:connector-curvature="0"
           style="fill:#04e8fd" /></g><g
         id="g31"><path
           class="st8"
           d="m 308.9,168.6 c 0,0 0.7,-0.8 1.9,-2.3 -54.1,38.3 -132.3,9.8 -132.3,9.8 l -1.4,-0.1 c -1.1,21.7 3.7,67 58.8,81.6 l 73,-89 z"
           id="path33"
           inkscape:connector-curvature="0"
           style="fill:#00fffe" /></g></g><path
       class="st9"
       d="m 167.2,41 c -5.4,-4 -20.5,-13.1 -44.7,-13.1 -4.2,0 -9.4,0 -15.3,0 20,21 62.9,73.7 69.8,145.4 0,-0.1 28.5,-78.2 -9.8,-132.3 z"
       id="path35"
       inkscape:connector-curvature="0"
       style="display:inline;fill:#961502" /><g
       class="st1"
       id="g37"
       style="display:inline"><path
         class="st10"
         d="M 177,173.2 C 170.1,101.5 127.2,48.8 107.2,27.8 c -37.4,0 -101.7,0 -101.7,0 l 159.5,145.4 12,0 z"
         id="path39"
         inkscape:connector-curvature="0"
         style="fill:#df1d01" /></g><g
       class="st1"
       id="g41"
       style="display:inline"><path
         class="st11"
         d="m 169.5,42.8 c 0,0 -0.8,-0.7 -2.3,-1.9 38.3,54.1 9.8,132.3 9.8,132.3 l -0.1,1.4 c 21.7,1.1 67,-3.7 81.6,-58.8 l -89,-73 z"
         id="path43"
         inkscape:connector-curvature="0"
         style="fill:#de2802" /></g><path
       class="st12"
       d="m 46.9,181.3 c -4,5.4 -13.1,20.5 -13.1,44.7 0,4.2 0,9.4 0,15.3 21,-20 73.7,-62.9 145.4,-69.8 0,0 -78.1,-28.4 -132.3,9.8 z"
       id="path45"
       inkscape:connector-curvature="0"
       style="display:inline;fill:#3b73ed" /><g
       class="st1"
       id="g47"
       style="display:inline"><path
         class="st13"
         d="m 48.8,179 c 0,0 -0.7,0.8 -1.9,2.3 54.1,-38.3 132.3,-9.8 132.3,-9.8 l 1.4,0.1 c 1.1,-21.7 -3.7,-67 -58.8,-81.6 l -73,89 z"
         id="path49"
         inkscape:connector-curvature="0"
         style="fill:#7dc1ff" /></g><circle
       class="st1"
       cx="178.8"
       cy="173.3"
       r="9.5"
       id="circle51"
       style="display:inline" /></g><g
     id="Layer_1_copy"
     clip-path="url(#clipPath4262)"
     transform="translate(-93,-90.149994)"><g
       id="g54"><path
         d="m 105.62891,192.09961 c -33.967919,15.92516 -58.906282,36.89465 -71.828129,49.20117 l 0,101.69922 99.130859,-108.74414 a 74.419807,74.419807 0 0 1 -27.30273,-42.15625 z"
         id="path56"
         style="fill:#4caced;fill-opacity:1"
         inkscape:connector-curvature="0" /></g><path
       d="M 199.06445,246.47266 A 74.419807,74.419807 0 0 1 178,249.57031 a 74.419807,74.419807 0 0 1 -8.30078,-0.5039 c 1.47189,19.53357 6.80718,40.15685 19.5,58.13281 5.4,4 20.50117,13.10156 44.70117,13.10156 l 15.29883,0 c -12.54776,-13.17515 -34.10475,-38.834 -50.13477,-73.82812 z"
       id="path58"
       style="fill:#138713;fill-opacity:1"
       inkscape:connector-curvature="0" /><g
       id="g60"><path
         d="m 238.70117,218.11914 a 74.419807,74.419807 0 0 1 -39.67578,28.36719 c 16.03404,35.03772 37.61588,60.72821 50.17383,73.91406 l 101.70117,0 -112.19922,-102.28125 z"
         id="path62"
         style="fill:#1db71d;fill-opacity:1"
         inkscape:connector-curvature="0" /></g><g
       id="g64"><path
         d="m 109.92969,205.00195 c -4.94878,7.35564 -9.10609,16.36633 -12.029299,27.39844 l 88.999999,73 c 0,0 0.79883,0.70039 2.29883,1.90039 -12.70032,-18.01983 -18.03377,-38.68136 -19.50195,-58.23633 a 74.419807,74.419807 0 0 1 -59.76758,-44.0625 z"
         id="path66"
         style="fill:#24e050;fill-opacity:1"
         inkscape:connector-curvature="0" /></g><path
       d="m 323.80078,106.30078 c -13.17495,12.54757 -38.83287,34.10483 -73.82617,50.13477 a 74.419807,74.419807 0 0 1 2.44531,18.71484 74.419807,74.419807 0 0 1 -0.87695,10.76758 c 19.83514,-1.36075 40.86593,-6.66859 59.15625,-19.61719 4,-5.4 13.10156,-20.50117 13.10156,-44.70117 l 0,-15.29883 z"
       id="path68"
       style="fill:#1a90b5;fill-opacity:1"
       inkscape:connector-curvature="0" /><g
       id="g70"><path
         d="M 323.90039,4.5996094 222.61914,115.70312 a 74.419807,74.419807 0 0 1 27.36524,40.77344 c 35.03891,-16.03414 60.72987,-37.61755 73.91601,-50.17578 l 0,-101.7011706 z"
         id="path72"
         style="fill:#26e6ef;fill-opacity:1"
         inkscape:connector-curvature="0" /></g><g
       id="g74"><path
         d="m 310.80078,166.30078 c -18.31392,12.96531 -39.38889,18.27076 -59.25781,19.62305 a 74.419807,74.419807 0 0 1 -45.34375,58.03515 c 7.7534,5.66 17.49038,10.4051 29.70117,13.64063 l 73,-89 c 0,0 0.70039,-0.79883 1.90039,-2.29883 z"
         id="path76"
         style="fill:#2bf7f1;fill-opacity:1"
         inkscape:connector-curvature="0" /></g><path
       d="m 107.19922,27.900391 c 12.75022,13.387733 34.79891,39.674811 50.90234,75.539059 A 74.419807,74.419807 0 0 1 178,100.73047 a 74.419807,74.419807 0 0 1 8.89648,0.5918 C 185.66544,81.148225 180.40129,59.64835 167.19922,41 161.79922,37 146.7,27.900391 122.5,27.900391 l -15.30078,0 z"
       id="path78"
       style="fill:#932216;fill-opacity:1"
       inkscape:connector-curvature="0" /><g
       id="g80"><path
         d="M 5.5,27.800781 118.40625,130.72461 a 74.419807,74.419807 0 0 1 39.73437,-27.29297 C 142.03364,67.520554 119.96029,41.199902 107.19922,27.800781 l -101.69922,0 z"
         id="path82"
         style="fill:#d8391e;fill-opacity:1"
         inkscape:connector-curvature="0" /></g><g
       id="g84"><path
         d="m 167.19922,40.900391 c 13.21961,18.673126 18.47921,40.215028 19.70117,60.423829 a 74.419807,74.419807 0 0 1 58.75781,43.05273 c 5.30642,-7.56567 9.76018,-16.94623 12.8418,-28.57617 l -89,-72.999999 c 0,0 -0.80078,-0.70039 -2.30078,-1.90039 z"
         id="path86"
         style="fill:#d8391e;fill-opacity:1"
         inkscape:connector-curvature="0" /></g><path
       d="m 104.84375,161.81836 c -19.468675,1.49924 -40.013043,6.84519 -57.943359,19.48242 -4,5.4 -13.09961,20.49922 -13.09961,44.69922 l 0,15.30078 c 12.921847,-12.30652 37.86021,-33.27601 71.828129,-49.20117 a 74.419807,74.419807 0 0 1 -2.04883,-16.94922 74.419807,74.419807 0 0 1 1.26367,-13.33203 z"
       id="path88"
       style="fill:#4e7cce;fill-opacity:1"
       inkscape:connector-curvature="0" /><g
       id="g90"><path
         d="m 121.80078,90 -72.999999,89 c 0,0 -0.70039,0.80078 -1.90039,2.30078 17.913416,-12.68177 38.466994,-18.03552 57.951169,-19.5293 a 74.419807,74.419807 0 0 1 48.47852,-56.74804 C 145.29512,98.753176 134.99342,93.495691 121.80078,90 Z"
         id="path92"
         style="fill:#86bfea;fill-opacity:1"
         inkscape:connector-curvature="0" /></g></g></svg>