<svg xmlns="http://www.w3.org/2000/svg" id="svg2" width="170" height="170"><defs id="defs98"><clipPath id="clipPath4262"><circle id="circle4264" cx="178" cy="175.15" r="85" fill="#fff" stroke-width="5"/></clipPath><linearGradient gradientUnits="userSpaceOnUse" x2="124.955" gradientTransform="scale(1.76623 .56618)" id="linearGradient4527" y2="130.03" y1="130.03" x1=".274"><stop id="stop4529" offset="0%" stop-color="#F4362C"/><stop id="stop4531" offset=".6" stop-color="#FF9A09"/></linearGradient><clipPath id="clipPath4262-9"><circle id="circle4264-7" cx="178" cy="175.15" r="85" fill="#fff" stroke-width="5"/></clipPath><clipPath id="clipPath4262-4"><circle id="circle4264-0" cx="178" cy="175.15" r="85" fill="#fff" stroke-width="5"/></clipPath></defs><style id="style4">.st1{display:inline}</style><g id="Layer_1_copy" clip-path="url(#clipPath4262)" transform="translate(-93 -90.15)"><g id="g54"><path d="M105.629 192.1C71.66 208.025 46.723 228.994 33.8 241.3V343l99.13-108.744A74.42 74.42 0 0 1 105.63 192.1z" id="path56" fill="#4caced"/></g><path d="M199.064 246.473A74.42 74.42 0 0 1 178 249.57a74.42 74.42 0 0 1-8.3-.504c1.471 19.534 6.806 40.157 19.5 58.133 5.4 4 20.5 13.102 44.7 13.102h15.3c-12.549-13.175-34.106-38.834-50.136-73.828z" id="path58" fill="#138713"/><g id="g60"><path d="M238.701 218.12a74.42 74.42 0 0 1-39.676 28.366c16.034 35.038 37.616 60.729 50.174 73.914H350.9L238.701 218.12z" id="path62" fill="#1db71d"/></g><g id="g64"><path d="M109.93 205.002c-4.95 7.356-9.106 16.366-12.03 27.398l89 73s.8.7 2.3 1.9c-12.701-18.019-18.035-38.68-19.503-58.236a74.42 74.42 0 0 1-59.767-44.062z" id="path66" fill="#24e050"/></g><path d="M323.8 106.3c-13.174 12.548-38.832 34.106-73.825 50.136a74.42 74.42 0 0 1 2.445 18.714 74.42 74.42 0 0 1-.877 10.768c19.835-1.36 40.866-6.669 59.156-19.617 4-5.4 13.102-20.501 13.102-44.701v-15.3z" id="path68" fill="#1a90b5"/><g id="g70"><path d="M323.9 4.6L222.62 115.703a74.42 74.42 0 0 1 27.364 40.774c35.04-16.035 60.73-37.618 73.916-50.176V4.6z" id="path72" fill="#26e6ef"/></g><g id="g74"><path d="M310.8 166.3c-18.313 12.966-39.388 18.272-59.257 19.624a74.42 74.42 0 0 1-45.344 58.035c7.754 5.66 17.49 10.405 29.701 13.64l73-89s.7-.798 1.9-2.298z" id="path76" fill="#2bf7f1"/></g><path d="M107.2 27.9c12.75 13.388 34.798 39.675 50.902 75.54A74.42 74.42 0 0 1 178 100.73a74.42 74.42 0 0 1 8.896.592C185.666 81.148 180.401 59.648 167.2 41c-5.4-4-20.499-13.1-44.699-13.1h-15.3z" id="path78" fill="#932216"/><g id="g80"><path d="M5.5 27.8l112.906 102.925a74.42 74.42 0 0 1 39.735-27.293C142.034 67.52 119.96 41.2 107.199 27.8H5.5z" id="path82" fill="#d8391e"/></g><g id="g84"><path d="M167.2 40.9c13.219 18.674 18.478 40.215 19.7 60.424a74.42 74.42 0 0 1 58.758 43.053c5.307-7.566 9.76-16.946 12.842-28.576l-89-73s-.8-.7-2.3-1.9z" id="path86" fill="#d8391e"/></g><path d="M104.844 161.818c-19.469 1.5-40.013 6.846-57.944 19.483-4 5.4-13.1 20.499-13.1 44.699v15.3c12.923-12.306 37.861-33.275 71.829-49.2a74.42 74.42 0 0 1-2.049-16.95 74.42 74.42 0 0 1 1.264-13.332z" id="path88" fill="#4e7cce"/><g id="g90"><path d="M121.8 90l-73 89s-.7.8-1.9 2.3c17.914-12.681 38.467-18.035 57.952-19.529a74.42 74.42 0 0 1 48.478-56.748c-8.035-6.27-18.337-11.527-31.53-15.023z" id="path92" fill="#86bfea"/></g></g></svg>