<svg xmlns="http://www.w3.org/2000/svg" width="292.571" height="292.571" viewBox="0 0 274.286 274.286"><path d="M137.317 139.626c-5.596 0-10.577 2.893-16.092 5.948l-103.62 57.391c23.895 43.619 69.65 70.76 119.384 70.82 49.905 0 95.82-27.278 119.693-71.103l-103.271-57.108c-5.517-3.051-10.498-5.948-16.094-5.948z" fill="#e6e6e6"/><path d="M137.317 139.626v134.148c49.785-.121 95.545-27.375 119.365-71.092l-103.271-57.108c-5.517-3.051-10.498-5.948-16.094-5.948z" fill="#fff"/><g transform="matrix(1.00715 0 0 1.00715 -1996.638 -1531.501)"><ellipse transform="rotate(-163.516)" ry="99.845" rx="100.014" cy="-992.025" cx="-2503.992" fill="#f2f2f2"/><ellipse ry="86.417" rx="70.391" cy="-2085.229" cx="1713.542" transform="rotate(88.797)" fill="#069dac"/><ellipse ry="19.299" rx="26.897" cy="-2337.745" cx="1433.833" transform="rotate(95.893)" fill="#73d5ef"/></g></svg>