<svg xmlns="http://www.w3.org/2000/svg" width="175" height="175"><rect width="175" height="6.287" y="168.713" ry="3.143" fill="#302c43"/><g fill-rule="evenodd"><path d="M62.116 168.713c37.966-29.992 31.092-152.086 54.88-152.086 23.787 0 15.408 123.435 52.395 152.086" fill="#dad5cf"/><path d="M66.029 168.713c35.197-24.434 28.824-123.9 50.876-123.9 22.052 0 14.284 100.559 48.573 123.9" fill="#13dd56"/><path d="M71.027 168.713c31.659-16.006 25.927-81.165 45.762-81.165 19.836 0 12.849 65.875 43.69 81.165" fill="#00ac6b"/><path d="M80.45 168.713c24.989-10.512 20.464-53.304 36.121-53.304 15.657 0 10.142 43.262 34.486 53.304" fill="#069dac"/><path d="M89.657 168.713c18.472-5.974 15.127-30.293 26.7-30.293 11.574 0 7.497 24.586 25.493 30.293" fill="#0784aa"/><path d="M5.61 168.713c19.598-13.07 16.05-66.275 28.329-66.275 12.28 0 7.954 53.79 27.047 66.275" fill="#dad5cf"/><path d="M7.63 168.713c18.168-10.647 14.878-53.992 26.262-53.992s7.374 43.82 25.074 53.992" fill="#13dd56"/><path d="M10.21 168.713c16.342-6.975 13.383-35.37 23.622-35.37 10.24 0 6.633 28.707 22.554 35.37" fill="#00ac6b"/><path d="M15.073 168.713c12.9-4.58 10.564-23.228 18.647-23.228 8.082 0 5.235 18.852 17.802 23.228" fill="#069dac"/><path d="M19.826 168.713c9.536-2.603 7.81-13.2 13.784-13.2 5.974 0 3.87 10.713 13.159 13.2" fill="#0784aa"/></g></svg>