<svg width="100" height="100" viewBox="0 0 100 100" fill="none" xmlns="http://www.w3.org/2000/svg">
<path d="M25.1486 42.9667V43.0375L25.1476 43.085C25.1476 43.0873 25.1476 43.09 25.1476 43.0932C25.1475 43.1032 25.1475 43.1178 25.1476 43.1369C25.1476 43.1659 25.1478 43.2054 25.1485 43.2549C25.1505 43.4193 25.1567 43.6932 25.1748 44.0623C25.2111 44.8023 25.2947 45.9138 25.4852 47.2849C25.8693 50.0506 26.67 53.7404 28.305 57.5292C31.3782 64.6507 37.3643 72.2148 50 74.87C62.6358 72.2148 68.6219 64.6507 71.6951 57.5292C73.3301 53.7404 74.1308 50.0506 74.5149 47.2849C74.7053 45.9138 74.7889 44.8023 74.8253 44.0623C74.8434 43.6932 74.8496 43.4193 74.8516 43.2549C74.8526 43.1728 74.8526 43.1183 74.8525 43.0932C74.8525 43.09 74.8525 43.0872 74.8524 43.085L74.8515 43.0375V42.9667V31.1792C65.9059 30.3956 59.1668 28.2795 54.3286 26.0339C52.6498 25.2547 51.2118 24.4655 50.0001 23.7208C48.7883 24.4655 47.3504 25.2547 45.6716 26.0339C40.8334 28.2795 34.0943 30.3957 25.1486 31.1793V42.9667Z" fill="#302C43" stroke="#302C43" stroke-width="14"/>
<path d="M56.2542 41.9234L56.258 41.9271C59.091 44.7011 63.3011 46.2941 67.3057 47.2127C68.6956 47.5316 70.0691 47.771 71.3642 47.9502C70.0691 48.1294 68.6956 48.3689 67.3057 48.6877C63.3011 49.6063 59.091 51.1993 56.258 53.9734L56.258 53.9733L56.2543 53.9771C53.4219 56.8094 51.7708 61.048 50.8091 65.0959C50.4556 66.5836 50.1931 68.0551 49.9995 69.4356C49.806 68.0551 49.5434 66.5836 49.19 65.0959C48.2282 61.048 46.5771 56.8094 43.7448 53.977L43.7411 53.9734C40.908 51.1993 36.698 49.6063 32.6934 48.6877C31.3035 48.3689 29.9299 48.1294 28.6349 47.9502C29.9299 47.771 31.3035 47.5316 32.6934 47.2127C36.698 46.2941 40.908 44.7011 43.7411 41.9271L43.7411 41.9271L43.7448 41.9234C46.5771 39.091 48.2282 34.8524 49.19 30.8045C49.5434 29.3168 49.806 27.8454 49.9995 26.4648C50.1931 27.8454 50.4556 29.3168 50.8091 30.8045C51.7708 34.8524 53.4219 39.091 56.2542 41.9234Z" fill="#FFA11A" stroke="#302C43"/>
</svg>
