<svg xmlns="http://www.w3.org/2000/svg" width="378" height="250">
    <g transform="matrix(.23665 .13663 -.15565 .2696 414.605 -53.286)" fill="#0CBEDB">
        <rect width="160" height="173.592" x="-229.529" y="779.505" ry="0" fill="#068EAC"/>
        <rect ry="0" y="779.505" x="-53.366" height="173.592" width="160"/>
        <rect width="160" height="173.592" x="122.796" y="779.505" ry="0" fill="#0CBEDB"/>
    </g>
    <g transform="matrix(.23665 .13663 -.15565 .2696 211.515 -170.54)" fill="#0CBEDB">
        <rect ry="0" y="779.505" x="-229.529" height="173.592" width="160" fill="#0CBEDB"/>
        <rect width="160" height="173.592" x="-53.366" y="779.505" ry="0"/>
        <rect ry="0" y="779.505" x="122.796" height="173.592" width="160" fill="#068EAC"/>
    </g>
    <path d="M206.27 43.72a35.425 36.791 30 0 1 38.577 22.428" fill="none" stroke="#f48e06" stroke-width="9.639" stroke-linecap="round"/>
    <path d="M200.593 21.085a61.203 63.564 30 0 1 66.647 38.747" fill="none" stroke="#FFAE21" stroke-width="9.639" stroke-linecap="round"/>
    <path d="M149.782 111.552h-.001l-13.086 22.666a23.68 25.05 30 0 0 8 33.608l11.764 6.791 11.764 6.792a23.68 25.05 30 0 0 33.104-9.876l13.086-22.665.01-.016c-.01.016-64.641-37.3-64.641-37.3z" fill="#302c43"/>
    <path d="M216.132 71.26a35.968 38.05 30 0 0-17.915-4.602c-13.564.227-27.19 8.095-35.058 21.722l-10.486 18.164s64.632 37.316 64.641 37.3l10.478-18.147c11.443-19.821 6.243-44.1-11.66-54.436z" fill="#342f54"/>
</svg>
