<svg xmlns="http://www.w3.org/2000/svg" viewBox="0 0 202 198"><style>.st0{display:none}.st1{display:inline}.st2{fill:#8F8E8C;stroke:#8F8E8C;stroke-miterlimit:10}.st3,.st4,.st5{display:inline;fill:#e8e0d8}.st4,.st5{fill:#8F8E8C}.st5{fill:url(#SVGID_1_)}.st6{fill:#00B35D}.st7{fill:#ff9a09}.st8{fill:#09a6d1}.st9{fill:#f4362c}.st10{fill:url(#SVGID_2_)}.st11{fill:url(#SVGID_3_)}.st12{fill:url(#SVGID_4_)}.st13{fill:url(#SVGID_5_)}.st14{fill:#f48e06}.st15{fill:#777571}.st16{fill:#6b6864}.st17{fill:#8f8d86}.st18{fill:#bcb3a7}.st19{fill:#c9bfb5}.st20{fill:#07D65B}.st21{fill:#02a562}.st22{fill:#f43d19}.st23{fill:#ef6204}.st24{fill:#EEECEB}.st25{fill:#e8e0d8}.st26{fill:#f4f2ec}.st27{fill:#FFFEFD}.st28{fill:#302c43}.st29{fill:#282632}.st30{fill:#342f54}.st31{fill:#0CBEDB}.st32{fill:#068EAC}.st33{fill:#0CBEDB}.st34{fill:none;stroke:#c1b19a;stroke-miterlimit:10}</style><text transform="translate(30.587 645.254)" fill="#8F8E8C" stroke="#8F8E8C" stroke-miterlimit="10" font-family="FilmotypeFashion" font-size="39.042" letter-spacing="31" id="Layer_5" class="st0">PRO</text><g id="Layer_6_copy" class="st0"><path class="st3" d="M64.2 566.3c.5.9 1.4 1.5 2.5 1.5h13.8c1.7 0 3-1.6 3.5-2.4l7.7-14.8c.1-.3.6-.5.8-.5H129c.2 0 .7.3.8.5l7.7 14.8c.4.8 1.7 2.4 3.5 2.4h13.8c1 0 2-.6 2.5-1.5s.5-2.1 0-3l-37.5-68c-.5-.9-1.4-1.5-2.4-1.5h-13c-1 0-1.9.6-2.4 1.5l-37.5 68c-.8.9-.8 2.1-.3 3zm37.1-34.3l9.4-18 9.4 18c.1.2.2.5.1.6h-19.1c0-.1.1-.4.2-.6z"/><path class="st4" d="M165.6 522.6c.2-.5.7-.8 1.2-.9l11.7-1.8c.5-.1.9.1 1.1.4.2.3 0 .8-.3 1.1l-8.7 8c-.4.4-1 .5-1.5.4-.5-.1-.7-.6-.5-1 0-.1.1-.2.1-.3.3-1 .2-2-.2-2.8-.4-.9-1.2-1.6-2.2-2-.1 0-.1 0-.2-.1-.2-.1-.4-.2-.5-.4v-.6z"/><linearGradient id="SVGID_1_" gradientUnits="userSpaceOnUse" x1="44.775" y1="533.728" x2="165.131" y2="533.728"><stop offset="0" stop-color="#f43d19"/><stop offset="1" stop-color="#ff9a09"/></linearGradient><path class="st5" d="M45.3 539c4.5-13.1 35.9-24.5 35.9-24.5h.3c.5 0 .9.4.9.9 0 .4-.2.7-.5.8-5.1 2.5-28.1 14.1-30.5 23-.4 1-.4 2 0 2.9 1.9 3.7 12.1 5.2 27.1 4.1 14.1-1.1 31.3-3 52.6-9.6 9.8-3 19.2-6.4 28-10.1l.3-.1 1.1-.4c.4-.1.8-.2 1.2-.2 1.8 0 3.3 1.4 3.3 3.2v.5c-.1 1.2-.9 2.2-2.1 2.6l-1 .4c-8.8 3.7-18 7-28 10-18.9 5.8-36.4 9-56.8 10.2-2.7.2-5.3.3-7.7.3-1.8 0-3.4 0-5-.1-.6 0-1.3-.1-1.9-.1-5.4-.6-20.9-3-17.2-13.8z"/></g><g id="Layer_9"><circle class="st6" cx="88.2" cy="36" r="7.5"/><path class="st7" d="M117.2 84.5c4.3 3.5 11.3 3.5 15.6.1l13.5-10.8c4.3-3.4 4.9-2.8 1.4 1.4l-11 13.2c-3.5 4.2-3.6 11.2-.1 15.4l10.8 13.2c3.5 4.3 2.8 4.9-1.4 1.4l-13.2-10.8c-4.3-3.5-11.3-3.6-15.7-.2l-16.2 12.4c-4.4 3.3-4.9 2.8-1.2-1.3L113 104c3.7-4.1 3.9-10.9.5-15.2l-11-13.7c-3.4-4.3-2.8-5 1.5-1.5l13.2 10.9z"/><path class="st7" d="M109.9 92.8c5.5-.3 10.4-5.1 10.9-10.5l3.2-33.7c.5-5.5 1.4-5.5 2 0l3.7 33.8c.6 5.5 5.6 10.4 11 11l28.1 2.9c5.5.6 5.5 1.4 0 1.8l-28.1 2.2c-5.5.4-10.4 5.2-10.9 10.7l-3.9 40.1c-.5 5.5-1.4 5.5-1.9 0l-3.8-39.6c-.5-5.5-5.4-10.3-10.9-10.7l-46.6-3.7c-5.5-.4-5.5-1.1 0-1.4l47.2-2.9z"/><path class="st8" d="M75.8 138.4c0-.1 0-.1 0 0-4.4-.1-15.3-1-20.6-6.4-5.4-5.4-6.4-16.4-6.6-20.9-.2 4.5-1.2 15.5-6.6 20.9-5.4 5.4-16.2 6.2-20.6 6.3 4.4.1 15.3 1 20.6 6.3 5.4 5.4 6.4 16.4 6.6 20.9.2-4.5 1.2-15.5 6.6-20.9 5.4-5.2 16.2-6.1 20.6-6.2.1 0 0 0 0 0"/><circle class="st9" cx="162.4" cy="160.5" r="5.7"/></g><g id="Layer_4" class="st0"><g class="st1"><linearGradient id="SVGID_2_" gradientUnits="userSpaceOnUse" x1="71.483" y1="516.603" x2="141.951" y2="516.603"><stop offset=".251" stop-color="#0CBEDB"/><stop offset=".478" stop-color="#00B35D"/></linearGradient><path class="st10" d="M74.5 543.4c15.7-1 34.9-3 58.6-10 3-.9 5.9-1.8 8.9-2.7l-21.8-39.5c-.6-1-1.6-1.6-2.7-1.6H103c-1.1 0-2.1.6-2.7 1.6l-28.9 52.3c1.1.1 2.1 0 3.1-.1zm25.3-11.2l10.5-20.1 10.5 20.1c.1.2.2.5.2.6H99.7c-.1-.1 0-.4.1-.6z"/><linearGradient id="SVGID_3_" gradientUnits="userSpaceOnUse" x1="58.158" y1="554.623" x2="162.366" y2="554.623"><stop offset=".251" stop-color="#0CBEDB"/><stop offset=".478" stop-color="#00B35D"/></linearGradient><path class="st11" d="M145.5 537.3c-3 1-6.1 1.9-9.3 2.9-21.1 6.2-40.6 9.5-63.4 10.6-1.9.1-3.6.1-5.4.2l-8.8 16c-.6 1-.6 2.3 0 3.3.6 1.1 1.6 1.7 2.7 1.7h15.3c1.9 0 3.4-1.7 3.9-2.7l8.6-16.5c.2-.3.7-.6.9-.6h40.6c.2 0 .8.3.9.6l8.6 16.5c.5.9 1.9 2.7 3.9 2.7h15.3c1.1 0 2.2-.7 2.7-1.7s.5-2.3 0-3.3l-16.5-29.7z"/><linearGradient id="SVGID_4_" gradientUnits="userSpaceOnUse" x1="171.392" y1="524.89" x2="187.098" y2="524.89"><stop offset=".251" stop-color="#0CBEDB"/><stop offset=".478" stop-color="#00B35D"/></linearGradient><path class="st12" d="M171.5 522.4c.2-.5.8-.9 1.4-1l13-2c.6-.1 1 .1 1.2.5.2.4 0 .9-.4 1.2L177 530c-.5.4-1.1.6-1.6.4-.5-.2-.7-.6-.5-1.1 0-.1.1-.2.1-.3.3-1.1.2-2.2-.2-3.1-.5-1-1.3-1.7-2.5-2.2-.1 0-.1 0-.2-.1-.2-.1-.4-.2-.5-.4-.2-.3-.2-.6-.1-.8z"/><linearGradient id="SVGID_5_" gradientUnits="userSpaceOnUse" x1="36.933" y1="534.768" x2="170.898" y2="534.768"><stop offset=".251" stop-color="#0CBEDB"/><stop offset=".478" stop-color="#00B35D"/></linearGradient><path class="st13" d="M37.6 540.7c5-14.6 40-27.3 40-27.3.1 0 .2-.1.3-.1.6 0 1 .5 1 1 0 .4-.2.8-.6.9-5.7 2.8-31.3 15.7-33.9 25.6-.4 1.1-.5 2.3.1 3.3 2.2 4.1 13.4 5.8 30.2 4.5 15.7-1.2 34.9-3.4 58.5-10.6 11-3.4 21.4-7.1 31.1-11.2l.3-.1 1.3-.5c.4-.2.9-.3 1.3-.3 2 0 3.6 1.6 3.7 3.6v.6c-.1 1.3-1 2.4-2.3 2.9l-1.1.4c-9.8 4.1-20 7.7-31.2 11.2-21 6.5-40.5 10-63.3 11.4-3 .2-5.9.3-8.6.3-2 0-3.8 0-5.6-.1-.7 0-1.4-.1-2.1-.1-6.1-.7-23.3-3.4-19.1-15.4z"/></g></g><g id="Layer_6" class="st0"><g class="st1"><path class="st7" d="M255.6 876.5s0-5 5-5h39.7s5 0 5 5v39.7s0 5-5 5h-39.7s-5 0-5-5v-39.7z"/></g><g class="st1"><path class="st14" d="M255.6 946.3s0-5 5-5h39.7s5 0 5 5V986s0 5-5 5h-39.7s-5 0-5-5v-39.7z"/></g><g class="st1"><path class="st15" d="M392.2 876.5s0-5 5-5h39.7s5 0 5 5v39.7s0 5-5 5h-39.7s-5 0-5-5v-39.7z"/></g><g class="st1"><path class="st16" d="M392.2 946.3s0-5 5-5h39.7s5 0 5 5V986s0 5-5 5h-39.7s-5 0-5-5v-39.7z"/></g><g class="st1"><path class="st17" d="M392.2 805.2s0-5 5-5h39.7s5 0 5 5v39.7s0 5-5 5h-39.7s-5 0-5-5v-39.7z"/></g><g class="st1"><path class="st18" d="M392.2 740s0-5 5-5h39.7s5 0 5 5v39.7s0 5-5 5h-39.7s-5 0-5-5V740z"/></g><g class="st1"><path class="st19" d="M392.2 674.7s0-5 5-5h39.7s5 0 5 5v39.7s0 5-5 5h-39.7s-5 0-5-5v-39.7z"/></g><g class="st1"><path class="st6" d="M528.8 876.5s0-5 5-5h39.7s5 0 5 5v39.7s0 5-5 5h-39.7s-5 0-5-5v-39.7z"/></g><g class="st1"><path class="st20" d="M528.8 805.8s0-5 5-5h39.7s5 0 5 5v39.7s0 5-5 5h-39.7s-5 0-5-5v-39.7z"/></g><g class="st1"><path class="st21" d="M528.8 946.3s0-5 5-5h39.7s5 0 5 5V986s0 5-5 5h-39.7s-5 0-5-5v-39.7z"/></g><g class="st1"><path class="st9" d="M597.1 876.5s0-5 5-5h39.7s5 0 5 5v39.7s0 5-5 5H602s-5 0-5-5v-39.7z"/></g><g class="st1"><path class="st22" d="M597.1 806.7s0-5 5-5h39.7s5 0 5 5v39.7s0 5-5 5H602s-5 0-5-5v-39.7z"/></g><g class="st1"><path class="st23" d="M597.1 740s0-5 5-5h39.7s5 0 5 5v39.7s0 5-5 5H602s-5 0-5-5V740z"/></g><g class="st1"><path class="st24" d="M510.1 986.6s0 5-5 5h-39.7s-5 0-5-5v-39.7s0-5 5-5h39.7s5 0 5 5v39.7z"/></g><g class="st1"><path class="st25" d="M510.1 1052.7s0 5-5 5h-39.7s-5 0-5-5V1013s0-5 5-5h39.7s5 0 5 5v39.7z"/></g><g class="st1"><path class="st26" d="M510.1 916.8s0 5-5 5h-39.7s-5 0-5-5v-39.7s0-5 5-5h39.7s5 0 5 5v39.7z"/></g><g class="st1"><path class="st27" d="M510.1 845.6s0 5-5 5h-39.7s-5 0-5-5v-39.7s0-5 5-5h39.7s5 0 5 5v39.7z"/></g><g class="st1"><path class="st28" d="M187.3 876.5s0-5 5-5H232s5 0 5 5v39.7s0 5-5 5h-39.7s-5 0-5-5v-39.7z"/></g><g class="st1"><path class="st29" d="M187.3 946.3s0-5 5-5H232s5 0 5 5V986s0 5-5 5h-39.7s-5 0-5-5v-39.7z"/></g><g class="st1"><path class="st30" d="M187.3 805.2s0-5 5-5H232s5 0 5 5v39.7s0 5-5 5h-39.7s-5 0-5-5v-39.7z"/></g><g class="st1"><path class="st31" d="M323.9 876.5s0-5 5-5h39.7s5 0 5 5v39.7s0 5-5 5h-39.7s-5 0-5-5v-39.7z"/></g><g class="st1"><path class="st32" d="M323.9 946.3s0-5 5-5h39.7s5 0 5 5V986s0 5-5 5h-39.7s-5 0-5-5v-39.7z"/></g><g class="st1"><path class="st33" d="M323.9 805.8s0-5 5-5h39.7s5 0 5 5v39.7s0 5-5 5h-39.7s-5 0-5-5v-39.7z"/></g><g class="st1"><path class="st34" d="M658 889c0-15.4-12.6-28-28-28H204.1c-15.4 0-28 12.6-28 28v14.7c0 15.4 12.6 28 28 28H630c15.4 0 28-12.6 28-28V889z"/></g></g></svg>