<?xml version="1.0" encoding="UTF-8" standalone="no"?>
<!-- Created with Inkscape (http://www.inkscape.org/) -->

<svg
   xmlns:dc="http://purl.org/dc/elements/1.1/"
   xmlns:cc="http://creativecommons.org/ns#"
   xmlns:rdf="http://www.w3.org/1999/02/22-rdf-syntax-ns#"
   xmlns:svg="http://www.w3.org/2000/svg"
   xmlns="http://www.w3.org/2000/svg"
   xmlns:sodipodi="http://sodipodi.sourceforge.net/DTD/sodipodi-0.dtd"
   xmlns:inkscape="http://www.inkscape.org/namespaces/inkscape"
   width="79.830124mm"
   height="79.472038mm"
   viewBox="0 0 282.86264 281.59384"
   id="svg2"
   version="1.1"
   inkscape:version="0.91 r13725"
   sodipodi:docname="webserver.svg">
  <defs
     id="defs4">
    <marker
       inkscape:stockid="Arrow1Mstart"
       orient="auto"
       refY="0"
       refX="0"
       id="Arrow1Mstart"
       style="overflow:visible"
       inkscape:isstock="true">
      <path
         id="path4335"
         d="M 0,0 5,-5 -12.5,0 5,5 0,0 Z"
         style="fill:#000000;fill-opacity:1;fill-rule:evenodd;stroke:#000000;stroke-width:1pt;stroke-opacity:1"
         transform="matrix(0.4,0,0,0.4,4,0)"
         inkscape:connector-curvature="0" />
    </marker>
    <marker
       inkscape:isstock="true"
       style="overflow:visible"
       id="marker4911"
       refX="0"
       refY="0"
       orient="auto"
       inkscape:stockid="Arrow2Mend">
      <path
         transform="scale(-0.6,-0.6)"
         d="M 8.7185878,4.0337352 -2.2072895,0.01601326 8.7185884,-4.0017078 c -1.7454984,2.3720609 -1.7354408,5.6174519 -6e-7,8.035443 z"
         style="fill:#07D65B;fill-opacity:1;fill-rule:evenodd;stroke:#07D65B;stroke-width:0.625;stroke-linejoin:round;stroke-opacity:1"
         id="path4913"
         inkscape:connector-curvature="0" />
    </marker>
    <marker
       inkscape:stockid="Arrow1Mend"
       orient="auto"
       refY="0"
       refX="0"
       id="Arrow1Mend"
       style="overflow:visible"
       inkscape:isstock="true">
      <path
         id="path4338"
         d="M 0,0 5,-5 -12.5,0 5,5 0,0 Z"
         style="fill:#07D65B;fill-opacity:1;fill-rule:evenodd;stroke:#07D65B;stroke-width:1pt;stroke-opacity:1"
         transform="matrix(-0.4,0,0,-0.4,-4,0)"
         inkscape:connector-curvature="0" />
    </marker>
    <marker
       inkscape:stockid="Arrow2Lstart"
       orient="auto"
       refY="0"
       refX="0"
       id="Arrow2Lstart"
       style="overflow:visible"
       inkscape:isstock="true">
      <path
         id="path4347"
         style="fill:#000000;fill-opacity:1;fill-rule:evenodd;stroke:#000000;stroke-width:0.625;stroke-linejoin:round;stroke-opacity:1"
         d="M 8.7185878,4.0337352 -2.2072895,0.01601326 8.7185884,-4.0017078 c -1.7454984,2.3720609 -1.7354408,5.6174519 -6e-7,8.035443 z"
         transform="matrix(1.1,0,0,1.1,1.1,0)"
         inkscape:connector-curvature="0" />
    </marker>
  </defs>
  <sodipodi:namedview
     id="base"
     pagecolor="#ffffff"
     bordercolor="#666666"
     borderopacity="1.0"
     inkscape:pageopacity="0.0"
     inkscape:pageshadow="2"
     inkscape:zoom="0.35"
     inkscape:cx="375"
     inkscape:cy="520"
     inkscape:document-units="px"
     inkscape:current-layer="layer1"
     showgrid="false"
     fit-margin-top="0"
     fit-margin-left="0"
     fit-margin-right="0"
     fit-margin-bottom="0" />
  <metadata
     id="metadata7">
    <rdf:RDF>
      <cc:Work
         rdf:about="">
        <dc:format>image/svg+xml</dc:format>
        <dc:type
           rdf:resource="http://purl.org/dc/dcmitype/StillImage" />
        <dc:title />
      </cc:Work>
    </rdf:RDF>
  </metadata>
  <g
     inkscape:label="Layer 1"
     inkscape:groupmode="layer"
     id="layer1"
     transform="translate(488.11496,-180.8366)">
    <g
       id="g3351"
       style="fill:#abdae1;fill-opacity:1">
      <path
         id="path4412"
         transform="translate(-488.11496,180.8366)"
         d="M 210.77148 8.8046875 C 196.87807 8.453977 179.70838 43.637 173.87109 67.228516 C 174.24229 68.027142 174.58177 68.846142 174.89062 69.685547 L 224.43555 197.30859 L 249.63477 197.30859 L 249.63477 80.785156 C 249.60217 60.414476 227.76868 9.2337375 210.77148 8.8046875 z M 171.8125 166.75391 L 171.8125 197.30859 L 183.67578 197.30859 L 171.8125 166.75391 z "
         style="opacity:1;fill:#abdae1;fill-opacity:1;stroke:none;stroke-width:10;stroke-linecap:round;stroke-linejoin:miter;stroke-miterlimit:4;stroke-dasharray:none;stroke-dashoffset:0;stroke-opacity:1" />
      <path
         id="path4215"
         transform="translate(-488.11496,180.8366)"
         d="M 230.33594 227.30859 C 228.83869 235.61191 224.40567 243.40649 216.88477 248.73438 C 205.48002 256.81364 188.06163 257.29591 175.91992 248.23633 L 174.85156 247.44141 L 173.9082 246.50195 C 175.85854 248.43542 174.68744 247.77567 172.07617 245.44922 C 169.92576 244.03772 167.6921 242.77662 165.38672 241.66406 L 153.45117 271.8418 C 152.05881 275.36221 157.17414 278.50586 161.79883 278.50586 L 180.63672 278.50586 L 240.80859 278.50586 L 259.64648 278.50586 C 264.2712 278.50586 269.35695 275.36958 267.99414 271.8418 L 250.78711 227.30859 L 230.33594 227.30859 z "
         style="opacity:1;fill:#abdae1;fill-opacity:1;stroke:none;stroke-width:15.42111588;stroke-linecap:round;stroke-linejoin:miter;stroke-miterlimit:4;stroke-dasharray:none;stroke-dashoffset:0;stroke-opacity:1" />
      <path
         id="path4408"
         transform="translate(-488.11496,180.8366)"
         d="M 72.195312 8.8046875 C 55.198092 8.3756275 33.286288 61.141986 33.236328 80.785156 L 33.236328 197.30859 L 58.523438 197.30859 L 110.30859 73.212891 C 106.36346 49.957852 87.360992 9.1875058 72.195312 8.8046875 z M 111.05859 170.08398 L 99.697266 197.30859 L 111.05859 197.30859 L 111.05859 170.08398 z "
         style="opacity:1;fill:#abdae1;fill-opacity:1;stroke:none;stroke-width:15.42111588;stroke-linecap:round;stroke-linejoin:miter;stroke-miterlimit:4;stroke-dasharray:none;stroke-dashoffset:0;stroke-opacity:1" />
      <path
         id="path4383"
         transform="translate(-488.11496,180.8366)"
         d="M 32.490234 227.30859 L 14.876953 271.8418 C 13.484593 275.36221 18.599919 278.50586 23.224609 278.50586 L 42.0625 278.50586 L 102.23242 278.50586 L 121.07031 278.50586 C 125.69503 278.50586 130.78078 275.36958 129.41797 271.8418 L 117.39062 240.71094 C 114.19431 242.05522 111.14467 243.68225 108.29688 245.58008 C 107.00429 246.85048 106.30522 247.27777 105.60156 247.58789 C 105.76105 247.47319 106.10544 246.95909 106.29102 246.80078 C 105.66138 247.35592 105.05361 247.67363 104.42969 248.15039 C 104.39864 248.1621 104.2224 248.24744 104.20312 248.25781 C 104.17829 248.2719 104.35749 248.19174 104.35156 248.20508 C 97.715329 253.24522 91.432945 254.27125 86.564453 254.75195 L 85.675781 254.83789 L 84.78125 254.84375 C 75.148855 254.88704 71.616927 252.15911 66.513672 248.89453 L 65.652344 248.34375 L 64.853516 247.70117 C 58.195653 242.35393 54.023058 235.11547 52.498047 227.30859 L 32.490234 227.30859 z "
         style="opacity:1;fill:#abdae1;fill-opacity:1;stroke:none;stroke-width:15.42111588;stroke-linecap:round;stroke-linejoin:miter;stroke-miterlimit:4;stroke-dasharray:none;stroke-dashoffset:0;stroke-opacity:1" />
    </g>
    <g
       transform="matrix(0,-1.4824702,1.4824702,0,-1118.9563,881.11147)"
       id="g5275"
       style="stroke:#ffffff;stroke-width:25.63289261;stroke-miterlimit:4;stroke-dasharray:none;stroke-opacity:1;fill:none" />
    <g
       style="stroke:none;stroke-width:5.96128464;stroke-miterlimit:4;stroke-dasharray:none;stroke-opacity:1"
       id="g4393"
       transform="matrix(0,-1.4824702,1.4824702,0,-1117.9461,887.17239)">
      <path
         id="path4395"
         d="m 315.275,477.307 c 2.807,-3.495 7.84,-4.87 12.281,-3.3 l 93.089,38.846 c 3.837,1.842 6.474,5.563 6.49,9.571 0.018,4.009 -2.384,7.768 -6.41,9.135 l -93.37,36.248 c -4.629,1.638 -9.674,0.34 -12.31,-3.381 -2.636,-3.721 -2.859,-8.53 0.148,-12.56 0.802,-0.809 1.2,-1.88 2.004,-2.688 5.608,-8.327 8.79,-18.239 8.744,-28.927 -0.046,-10.69 -3.115,-21.355 -9.402,-30.126 -0.404,-0.265 -0.609,-1.065 -1.013,-1.329 -1.418,-1.593 -2.033,-3.993 -2.244,-6.13 -0.006,-1.335 0.791,-3.48 1.993,-5.359 z"
         inkscape:connector-curvature="0"
         style="fill:#302c43;stroke:none;stroke-width:7.15354156;stroke-miterlimit:4;stroke-dasharray:none;stroke-opacity:1" />
      <ellipse
         id="ellipse4397"
         ry="19.048"
         rx="18.591"
         cy="520.93402"
         cx="355.82599"
         style="fill:#FFFEFD;stroke:none;stroke-width:5.96128464;stroke-miterlimit:4;stroke-dasharray:none;stroke-opacity:1" />
    </g>
    <g
       id="g4488"
       transform="matrix(0,-1.7532644,1.7532644,0,-1260.0167,973.8675)"
       style="fill:#0CBEDB;fill-opacity:1">
      <ellipse
         id="ellipse4494"
         transform="matrix(-0.00954004,0.99995449,-0.99974527,-0.02256989,0,0)"
         ry="6.2818718"
         rx="21.429316"
         cy="-315.55069"
         cx="513.83179"
         style="fill:#0CBEDB;fill-opacity:1;stroke-width:3.81699991;stroke-dasharray:11.451, 11.451" />
    </g>
  </g>
</svg>
