<svg width="331" height="351" viewBox="0 0 331 351" xmlns="http://www.w3.org/2000/svg"><title>AWithStars</title><defs><linearGradient x1=".012%" y1="50.028%" y2="50.028%" id="a"><stop stop-color="#F4362C" offset="0%"/><stop stop-color="#FF9A09" offset="78.7%"/></linearGradient></defs><g fill-rule="nonzero" fill="none"><g transform="translate(-1)"><path d="M249 36.6c4.3 3.5 11.3 3.5 15.6.1l11.4-9.1c4.3-3.4 4.9-2.8 1.4 1.4L268 40.1c-3.5 4.2-3.6 11.2-.1 15.4l9.1 11.1c3.5 4.3 2.8 4.9-1.4 1.4l-11.1-9c-4.3-3.5-11.3-3.6-15.7-.2l-13.9 10.6c-4.4 3.3-4.9 2.8-1.2-1.3L245 55.7c3.7-4.1 3.9-10.9.5-15.2L236.3 29c-3.4-4.3-2.8-5 1.5-1.5l11.2 9.1z" fill="#F48E06"/><path d="M242 44.8c5.5-.3 10.4-5.1 10.9-10.5l2.8-29.8c.5-5.5 1.4-5.5 2 0l3.3 29.8c.6 5.5 5.6 10.4 11 11l24.6 2.5c5.5.6 5.5 1.4 0 1.8L272 51.5c-5.5.4-10.4 5.2-10.9 10.7l-3.5 35.7c-.5 5.5-1.4 5.5-1.9 0l-3.3-35.2c-.5-5.5-5.4-10.3-10.9-10.7l-41.7-3.3c-5.5-.4-5.5-1.1 0-1.4l42.2-2.5z" fill="#F48E06"/><circle fill="#302C43" cx="131.8" cy="21.8" r="13.3"/><path d="M49.1 106.1c-3.9-.1-13.6-.9-18.3-5.6C26 95.7 25.1 86 25 82c-.2 4-1.1 13.8-5.8 18.5-4.8 4.8-14.4 5.5-18.3 5.6 3.9.1 13.5.9 18.3 5.6 4.8 4.8 5.7 14.5 5.8 18.5.2-4 1.1-13.8 5.8-18.5 4.7-4.6 14.4-5.4 18.3-5.6 0 .1 0 .1 0 0" fill="#00AC6B"/><path d="M243.1 314c-6-.2-20.7-1.4-27.9-8.6-7.3-7.3-8.6-22.2-8.9-28.2h-.2c-.2 6.1-1.6 21-8.9 28.2-7.2 7.2-21.9 8.4-27.9 8.6 6 .2 20.6 1.3 27.9 8.6 7.3 7.3 8.6 22.2 8.9 28.2h.2c.2-6.1 1.6-21 8.9-28.2 7.2-7.2 21.9-8.3 27.9-8.6-.1.1 0 .1 0 0" fill="#09A6D1"/><circle fill="#F4362C" cx="324.4" cy="239" r="7"/><circle fill="#A39A8B" cx="38.5" cy="280.6" r="7"/></g><path d="M84 234.2c.9 1.7 2.6 2.8 4.5 2.8h25.2c3.2 0 5.5-2.9 6.3-4.4l14.1-27.1c.2-.5 1.1-1 1.5-1h66.7c.4 0 1.2.5 1.5 1l14.1 27.1c.8 1.5 3.1 4.4 6.3 4.4h25.2c1.9 0 3.6-1.1 4.5-2.8.9-1.7.9-3.8-.1-5.4l-68.6-124.5c-.9-1.7-2.6-2.7-4.4-2.7h-23.7c-1.8 0-3.5 1-4.4 2.7L84.1 228.8c-.9 1.6-1 3.7-.1 5.4zm67.8-62.7l17.2-33 17.2 33c.2.3.3.8.3 1-.1 0-.2.1-.5.1h-33.9c-.3 0-.5 0-.5-.1-.1-.2.1-.7.2-1z" fill="#302C43"/><path d="M269.6 154.3c.3-.8 1.2-1.5 2.2-1.7l21.4-3.3c.9-.1 1.7.2 2 .8.3.6.1 1.4-.6 2l-15.9 14.6c-.8.7-1.9 1-2.7.7-.8-.3-1.2-1-.9-1.9.1-.2.1-.4.2-.6.5-1.8.4-3.6-.4-5.2s-2.2-2.9-4.1-3.6c-.1 0-.2-.1-.3-.1-.4-.1-.7-.4-.9-.7-.1-.2-.1-.6 0-1z" fill="#A39A8B"/><path d="M1.5 83.3c8.2-24 65.7-44.9 65.7-44.9.2-.1.4-.1.5-.1.9 0 1.7.8 1.7 1.7 0 .7-.4 1.2-1 1.5-9.4 4.6-51.4 25.8-55.8 42-.7 1.9-.8 3.7.1 5.4 3.6 6.7 22.1 9.5 49.6 7.4 25.8-2 57.4-5.6 96.2-17.5 18-5.5 35.2-11.7 51.2-18.5l.5-.2 2.1-.8c.7-.3 1.4-.4 2.2-.4 3.3 0 6 2.6 6.1 5.9 0 .3.1.7.1 1-.1 2.1-1.6 3.9-3.8 4.8l-1.7.7C199.1 78 182.3 84 164 89.7c-34.6 10.6-66.6 16.4-104 18.7-5 .3-9.7.5-14.1.5-3.2 0-6.3-.1-9.2-.2-1.2-.1-2.3-.1-3.5-.2-10.2-1-38.5-5.4-31.7-25.2z" fill="url(#a)" transform="translate(48 101)"/></g></svg>