<?xml version="1.0" encoding="utf-8"?>
<!-- Generator: Adobe Illustrator 21.1.0, SVG Export Plug-In . SVG Version: 6.00 Build 0)  -->
<svg version="1.1" id="Layer_1" xmlns="http://www.w3.org/2000/svg" xmlns:xlink="http://www.w3.org/1999/xlink" x="0px" y="0px"
	 viewBox="0 0 2048 1148.3" style="enable-background:new 0 0 2048 1148.3;" xml:space="preserve">
<style type="text/css">
	.st0{fill:#F4362C;}
	.st1{fill:#FF9A09;}
	.st2{fill:#302C43;}
	.st3{fill:#7D766A;}
	.st4{fill:#00AD6B;}
	.st5{fill:#079DAD;}
	.st6{fill:#302C43;stroke:#302C43;stroke-width:2;stroke-linecap:round;stroke-linejoin:round;stroke-miterlimit:10;}
	.st7{display:none;}
	.st8{display:inline;fill:#F4362C;}
	.st9{display:inline;fill:#FF9A09;}
	.st10{display:inline;fill:#7D766A;}
	.st11{display:inline;fill:#00AD6B;}
	.st12{display:inline;fill:#079DAD;}
	.st13{display:inline;}
	.st14{fill:#F5F2ED;}
	.st15{display:inline;fill:#069DAC;}
</style>
<circle class="st0" cx="1474.7" cy="351.9" r="17.5"/>
<circle class="st0" cx="1321.8" cy="776" r="12.5"/>
<circle class="st1" cx="1243.9" cy="954.8" r="10.5"/>
<circle class="st2" cx="826.8" cy="190" r="12.5"/>
<circle class="st3" cx="1171.5" cy="389.8" r="10.5"/>
<circle class="st4" cx="1351.8" cy="247" r="12.5"/>
<circle class="st5" cx="1605" cy="841.4" r="17"/>
<circle class="st2" cx="676" cy="776.5" r="10.5"/>
<g>
	<path class="st6" d="M196.9,619.6l-12.5-25h-59.9l-14,25h-22l57.4-96.4h22l49.9,96.4C217.9,619.6,196.9,619.6,196.9,619.6z
		 M134,578.2h42.5l-20-40L134,578.2z"/>
	<path class="st6" d="M387.2,548.7c-7-5.5-26.5-11-43-11c-15,0-28,4.5-28,15c0,17.5,79.9-1.5,79.9,35.5c0,18-18,34.5-50.4,34.5
		c-33,0-48.5-11-54.4-17.5l12-13.5c13.5,11,28.5,14.5,42,14.5c14,0,31.5-3.5,31.5-15.5c0-23-80.4,1.5-80.4-38
		c0-19.5,22-31.5,50.4-31.5c24,0,42,7.5,50.9,13.5C397.2,534.7,391.2,543.7,387.2,548.7z"/>
	<path class="st6" d="M569.1,540.2h-39.5v79.4h-18v-79.4h-38.5v-16.5h96.4v16.5H569.1z"/>
	<path class="st6" d="M651,619.6v-95.9h62.4c23,0,33.5,12.5,33.5,29c0,14.5-8,26-25,28.5l29.5,38.5h-23l-29-37.5H669v37.5
		C669,619.6,651,619.6,651,619.6z M669.5,539.2v27.5H713c11,0,17.5-5,17.5-14c0-7.5-6.5-13.5-17.5-13.5H669.5z"/>
	<path class="st6" d="M950.2,571.7c0,28.5-24,49.9-61.9,49.9c-38,0-62.4-21-62.4-49.9c0-29,24.5-50.9,62.4-50.9
		C926.7,520.7,950.2,542.7,950.2,571.7z M931.2,571.7c0-20.5-16.5-34-43-34s-43,13.5-43,34c0,20,16.5,33,43,33
		S931.2,591.6,931.2,571.7z"/>
	<path class="st6" d="M1141.5,619.6h-23l-62.4-73.9v73.9h-18.5v-95.9h23.5l62.4,73.4v-73.4h18V619.6z"/>
	<path class="st6" d="M1353.8,571.7c0,28.5-24,49.9-61.9,49.9c-38,0-62.4-21-62.4-49.9c0-29,24.5-50.9,62.4-50.9
		C1329.8,520.7,1353.8,542.7,1353.8,571.7z M1334.3,571.7c0-20.5-16.5-34-43-34s-43,13.5-43,34c0,20,16.5,33,43,33
		C1318.3,604.6,1334.3,591.6,1334.3,571.7z"/>
	<path class="st6" d="M1513.6,600.1l47-76.4h24.5v95.9h-18v-75.9l-47,75.9h-16.5l-45.5-75.9v75.9h-18v-95.9h27.5L1513.6,600.1z"/>
	<path class="st6" d="M1769.4,603.6v16.5H1677v-96.9h88.9v16.5H1695v23h65.9v16H1695v25C1694.9,603.6,1769.4,603.6,1769.4,603.6z"/>
	<path class="st6" d="M1853.8,619.6v-95.9h62.4c23,0,33.5,12.5,33.5,29c0,14.5-8,26-25,28.5l29.5,38.5h-23l-29-37.5h-30.5v37.5
		C1871.8,619.6,1853.8,619.6,1853.8,619.6z M1872.3,539.2v27.5h43.5c11,0,17.5-5,17.5-14c0-7.5-6.5-13.5-17.5-13.5H1872.3z"/>
</g>
<path class="st1" d="M1005.6,270L1005.6,270L1005.6,270L1005.6,270c0,7.5-1.5,25.5-10.5,34c-9,9-27,10.5-34.5,11l0,0l0,0l0,0l0,0
	l0,0l0,0c7.5,0.5,25.5,2,34.5,11s10.5,27,10.5,34l0,0l0,0l0,0l0,0l0,0l0,0l0,0l0,0l0,0c0-7.5,1.5-25,10.5-34s27-10.5,34.5-11l0,0
	l0,0l0,0l0,0l0,0l0,0c-7.5-0.5-25.5-2-34.5-11C1007.6,294.9,1006.1,277,1005.6,270L1005.6,270L1005.6,270L1005.6,270L1005.6,270
	L1005.6,270L1005.6,270L1005.6,270"/>
<path class="st5" d="M578.6,314.4L578.6,314.4L578.6,314.4L578.6,314.4c-3.5,3-12,10.5-20,10.5s-17-7.5-20.5-10.5l0,0l0,0l0,0l0,0
	l0,0l0,0c3,3.5,10.5,12.5,10.5,20.5s-7.5,16.5-10.5,20l0,0l0,0l0,0l0,0l0,0l0,0l0,0l0,0l0,0c3.5-3,12-10.5,20-10.5s17,7.5,20.5,10.5
	l0,0l0,0l0,0l0,0l0,0l0,0c-3-3.5-10.5-12.5-10.5-20.5S575.6,317.9,578.6,314.4L578.6,314.4L578.6,314.4L578.6,314.4L578.6,314.4
	L578.6,314.4L578.6,314.4L578.6,314.4"/>
<path class="st3" d="M1180,775L1180,775L1180,775L1180,775c-5,5-18,16-30,16s-25.5-11-30.5-16l0,0l0,0l0,0l0,0l0,0l0,0
	c5,5,16,18.5,16,30.5s-11,25-16,30l0,0l0,0l0,0l0,0l0,0l0,0l0,0l0,0l0,0c5-5,18-16,30-16s25.5,11,30.5,16l0,0l0,0l0,0l0,0l0,0l0,0
	c-5-5-16-18.5-16-30.5S1175.5,780.5,1180,775L1180,775L1180,775L1180,775L1180,775L1180,775L1180,775L1180,775"/>
<path class="st4" d="M920.7,868.4L920.7,868.4L920.7,868.4L920.7,868.4c-7,0-23.5-1.5-31.5-9.5s-9.5-25-10-32l0,0l0,0l0,0l0,0l0,0
	l0,0c-0.5,7-2,23.5-10,32c-8,8-24.5,9.5-31.5,9.5l0,0l0,0l0,0l0,0l0,0l0,0l0,0l0,0l0,0c6.5,0,23.5,1.5,31.5,9.5s9.5,25,10,32l0,0
	l0,0l0,0l0,0l0,0l0,0c0.5-7,2-23.5,10-32C897.7,870.4,914.2,868.9,920.7,868.4C920.7,868.9,920.7,868.9,920.7,868.4L920.7,868.4
	L920.7,868.4L920.7,868.4L920.7,868.4L920.7,868.4L920.7,868.4"/>
<g id="for_DARK_background" class="st7">
	<circle class="st8" cx="3010.4" cy="-57.3" r="3.5"/>
	<circle class="st8" cx="2979.8" cy="27.6" r="2.5"/>
	<circle class="st9" cx="2963.6" cy="65.6" r="2.1"/>
	<circle class="st10" cx="2880.7" cy="-89.7" r="2.5"/>
	<circle class="st10" cx="2949.7" cy="-49.7" r="2.1"/>
	<circle class="st11" cx="2985.8" cy="-78.3" r="2.5"/>
	<circle class="st12" cx="3036.5" cy="40.7" r="3.4"/>
	<circle class="st9" cx="2850.5" cy="27.7" r="2.1"/>
	<g class="st13">
		<path class="st14" d="M2754.6-3.7l-2.5-5h-12l-2.8,5h-4.4l11.5-19.3h4.4l10,19.3C2758.8-3.7,2754.6-3.7,2754.6-3.7z M2742-12h8.5
			l-4-8L2742-12z"/>
		<path class="st14" d="M2792.7-17.9c-1.4-1.1-5.3-2.2-8.6-2.2c-3,0-5.6,0.9-5.6,3c0,3.5,16-0.3,16,7.1c0,3.6-3.6,6.9-10.1,6.9
			c-6.6,0-9.7-2.2-10.9-3.5l2.4-2.7c2.7,2.2,5.7,2.9,8.4,2.9c2.8,0,6.3-0.7,6.3-3.1c0-4.6-16.1,0.3-16.1-7.6c0-3.9,4.4-6.3,10.1-6.3
			c4.8,0,8.4,1.5,10.2,2.7C2794.7-20.7,2793.5-18.9,2792.7-17.9z"/>
		<path class="st14" d="M2829.1-19.6h-7.9v15.9h-3.6v-15.9h-7.7v-3.3h19.3v3.3H2829.1z"/>
		<path class="st14" d="M2845.5-3.7v-19.2h12.5c4.6,0,6.7,2.5,6.7,5.8c0,2.9-1.6,5.2-5,5.7l5.9,7.7h-4.6l-5.8-7.5h-6.1v7.5
			C2849.1-3.7,2845.5-3.7,2845.5-3.7z M2849.2-19.8v5.5h8.7c2.2,0,3.5-1,3.5-2.8c0-1.5-1.3-2.7-3.5-2.7H2849.2z"/>
		<path class="st14" d="M2905.4-13.3c0,5.7-4.8,10-12.4,10c-7.6,0-12.5-4.2-12.5-10s4.9-10.2,12.5-10.2
			C2900.7-23.5,2905.4-19.1,2905.4-13.3z M2901.6-13.3c0-4.1-3.3-6.8-8.6-6.8s-8.6,2.7-8.6,6.8c0,4,3.3,6.6,8.6,6.6
			C2898.3-6.7,2901.6-9.3,2901.6-13.3z"/>
		<path class="st14" d="M2943.7-3.7h-4.6l-12.5-14.8v14.8h-3.7v-19.2h4.7l12.5,14.7v-14.7h3.6V-3.7z"/>
		<path class="st14" d="M2986.2-13.3c0,5.7-4.8,10-12.4,10c-7.6,0-12.5-4.2-12.5-10s4.9-10.2,12.5-10.2
			C2981.4-23.5,2986.2-19.1,2986.2-13.3z M2982.3-13.3c0-4.1-3.3-6.8-8.6-6.8s-8.6,2.7-8.6,6.8c0,4,3.3,6.6,8.6,6.6
			C2979.1-6.7,2982.3-9.3,2982.3-13.3z"/>
		<path class="st14" d="M3018.2-7.6l9.4-15.3h4.9v19.2h-3.6v-15.2l-9.4,15.2h-3.3l-9.1-15.2v15.2h-3.6v-19.2h5.5L3018.2-7.6z"/>
		<path class="st14" d="M3069.4-6.9v3.3h-18.5V-23h17.8v3.3h-14.2v4.6h13.2v3.2h-13.2v5C3054.5-6.9,3069.4-6.9,3069.4-6.9z"/>
		<path class="st14" d="M3086.3-3.7v-19.2h12.5c4.6,0,6.7,2.5,6.7,5.8c0,2.9-1.6,5.2-5,5.7l5.9,7.7h-4.6l-5.8-7.5h-6.1v7.5
			C3089.9-3.7,3086.3-3.7,3086.3-3.7z M3090-19.8v5.5h8.7c2.2,0,3.5-1,3.5-2.8c0-1.5-1.3-2.7-3.5-2.7H3090z"/>
	</g>
	<path class="st9" d="M2916.5-73.7L2916.5-73.7L2916.5-73.7L2916.5-73.7c0,1.5-0.3,5.1-2.1,6.8c-1.8,1.8-5.4,2.1-6.9,2.2l0,0l0,0
		l0,0l0,0l0,0l0,0c1.5,0.1,5.1,0.4,6.9,2.2c1.8,1.8,2.1,5.4,2.1,6.8l0,0l0,0l0,0l0,0l0,0l0,0l0,0l0,0l0,0c0-1.5,0.3-5,2.1-6.8
		s5.4-2.1,6.9-2.2l0,0l0,0l0,0l0,0l0,0l0,0c-1.5-0.1-5.1-0.4-6.9-2.2C2916.9-68.7,2916.6-72.3,2916.5-73.7L2916.5-73.7L2916.5-73.7
		L2916.5-73.7L2916.5-73.7L2916.5-73.7L2916.5-73.7L2916.5-73.7"/>
	<path class="st12" d="M2831-64.8L2831-64.8L2831-64.8L2831-64.8c-0.7,0.6-2.4,2.1-4,2.1s-3.4-1.5-4.1-2.1l0,0l0,0l0,0l0,0l0,0l0,0
		c0.6,0.7,2.1,2.5,2.1,4.1s-1.5,3.3-2.1,4l0,0l0,0l0,0l0,0l0,0l0,0l0,0l0,0l0,0c0.7-0.6,2.4-2.1,4-2.1s3.4,1.5,4.1,2.1l0,0l0,0l0,0
		l0,0l0,0l0,0c-0.6-0.7-2.1-2.5-2.1-4.1S2830.4-64.1,2831-64.8L2831-64.8L2831-64.8L2831-64.8L2831-64.8L2831-64.8L2831-64.8
		L2831-64.8"/>
	<path class="st15" d="M2951.4,27.4L2951.4,27.4L2951.4,27.4L2951.4,27.4c-1,1-3.6,3.2-6,3.2s-5.1-2.2-6.1-3.2l0,0l0,0l0,0l0,0l0,0
		l0,0c1,1,3.2,3.7,3.2,6.1s-2.2,5-3.2,6l0,0l0,0l0,0l0,0l0,0l0,0l0,0l0,0l0,0c1-1,3.6-3.2,6-3.2s5.1,2.2,6.1,3.2l0,0l0,0l0,0l0,0
		l0,0l0,0c-1-1-3.2-3.7-3.2-6.1C2948.2,31,2950.5,28.5,2951.4,27.4L2951.4,27.4L2951.4,27.4L2951.4,27.4L2951.4,27.4L2951.4,27.4
		L2951.4,27.4L2951.4,27.4"/>
	<path class="st10" d="M2899.5,46.1L2899.5,46.1L2899.5,46.1L2899.5,46.1c-1.4,0-4.7-0.3-6.3-1.9c-1.6-1.6-1.9-5-2-6.4l0,0l0,0l0,0
		l0,0l0,0l0,0c-0.1,1.4-0.4,4.7-2,6.4c-1.6,1.6-4.9,1.9-6.3,1.9l0,0l0,0l0,0l0,0l0,0l0,0l0,0l0,0l0,0c1.3,0,4.7,0.3,6.3,1.9
		c1.6,1.6,1.9,5,2,6.4l0,0l0,0l0,0l0,0l0,0l0,0c0.1-1.4,0.4-4.7,2-6.4C2894.9,46.5,2898.2,46.2,2899.5,46.1
		C2899.5,46.2,2899.5,46.2,2899.5,46.1L2899.5,46.1L2899.5,46.1L2899.5,46.1L2899.5,46.1L2899.5,46.1L2899.5,46.1"/>
</g>
</svg>
