<svg id="Layer_1" xmlns="http://www.w3.org/2000/svg" viewBox="0 0 2048 1148.3"><style>.st0{fill:#f4362c}.st1{fill:#ff9a09}.st2{fill:#7d766a}.st3{fill:#00ad6b}.st4{fill:#079dad}.st5{fill:#e8e0d8;stroke:#e8e0d8;stroke-linecap:round;stroke-linejoin:round;stroke-miterlimit:10}.st6{display:none}.st7{display:inline;fill:#f4362c}.st10,.st8,.st9{display:inline;fill:#ff9a09}.st10,.st9{fill:#7d766a}.st10{fill:#00ad6b}.st11{fill:#079dad}.st11,.st12{display:inline}.st13{fill:#f5f2ed}.st14{display:inline;fill:#069dac}</style><switch><g><circle class="st0" cx="1474.7" cy="351.9" r="17.5"/><circle class="st0" cx="1321.8" cy="776" r="12.5"/><circle class="st1" cx="1243.9" cy="954.8" r="10.5"/><circle class="st2" cx="826.8" cy="190" r="12.5"/><circle class="st2" cx="1171.5" cy="389.8" r="10.5"/><circle class="st3" cx="1351.8" cy="247" r="12.5"/><circle class="st4" cx="1605" cy="841.4" r="17"/><circle class="st1" cx="676" cy="776.5" r="10.5"/><path class="st5" d="M196.9 619.6l-12.5-25h-59.9l-14 25h-22l57.4-96.4h22l49.9 96.4h-20.9zM134 578.2h42.5l-20-40-22.5 40zM387.2 548.7c-7-5.5-26.5-11-43-11-15 0-28 4.5-28 15 0 17.5 79.9-1.5 79.9 35.5 0 18-18 34.5-50.4 34.5-33 0-48.5-11-54.4-17.5l12-13.5c13.5 11 28.5 14.5 42 14.5 14 0 31.5-3.5 31.5-15.5 0-23-80.4 1.5-80.4-38 0-19.5 22-31.5 50.4-31.5 24 0 42 7.5 50.9 13.5-.5 0-6.5 9-10.5 14zM569.1 540.2h-39.5v79.4h-18v-79.4h-38.5v-16.5h96.4v16.5h-.4zM651 619.6v-95.9h62.4c23 0 33.5 12.5 33.5 29 0 14.5-8 26-25 28.5l29.5 38.5h-23l-29-37.5H669v37.5c0-.1-18-.1-18-.1zm18.5-80.4v27.5H713c11 0 17.5-5 17.5-14 0-7.5-6.5-13.5-17.5-13.5h-43.5zM950.2 571.7c0 28.5-24 49.9-61.9 49.9-38 0-62.4-21-62.4-49.9 0-29 24.5-50.9 62.4-50.9 38.4-.1 61.9 21.9 61.9 50.9zm-19 0c0-20.5-16.5-34-43-34s-43 13.5-43 34c0 20 16.5 33 43 33s43-13.1 43-33zM1141.5 619.6h-23l-62.4-73.9v73.9h-18.5v-95.9h23.5l62.4 73.4v-73.4h18v95.9zM1353.8 571.7c0 28.5-24 49.9-61.9 49.9-38 0-62.4-21-62.4-49.9 0-29 24.5-50.9 62.4-50.9 37.9-.1 61.9 21.9 61.9 50.9zm-19.5 0c0-20.5-16.5-34-43-34s-43 13.5-43 34c0 20 16.5 33 43 33 27-.1 43-13.1 43-33zM1513.6 600.1l47-76.4h24.5v95.9h-18v-75.9l-47 75.9h-16.5l-45.5-75.9v75.9h-18v-95.9h27.5l46 76.4zM1769.4 603.6v16.5H1677v-96.9h88.9v16.5H1695v23h65.9v16H1695v25c-.1-.1 74.4-.1 74.4-.1zM1853.8 619.6v-95.9h62.4c23 0 33.5 12.5 33.5 29 0 14.5-8 26-25 28.5l29.5 38.5h-23l-29-37.5h-30.5v37.5c.1-.1-17.9-.1-17.9-.1zm18.5-80.4v27.5h43.5c11 0 17.5-5 17.5-14 0-7.5-6.5-13.5-17.5-13.5h-43.5z"/><path class="st1" d="M1005.6 270c0 7.5-1.5 25.5-10.5 34-9 9-27 10.5-34.5 11 7.5.5 25.5 2 34.5 11s10.5 27 10.5 34c0-7.5 1.5-25 10.5-34s27-10.5 34.5-11c-7.5-.5-25.5-2-34.5-11-8.5-9.1-10-27-10.5-34"/><path class="st4" d="M578.6 314.4c-3.5 3-12 10.5-20 10.5s-17-7.5-20.5-10.5c3 3.5 10.5 12.5 10.5 20.5s-7.5 16.5-10.5 20c3.5-3 12-10.5 20-10.5s17 7.5 20.5 10.5c-3-3.5-10.5-12.5-10.5-20.5s7.5-16.5 10.5-20"/><path class="st3" d="M1180 775c-5 5-18 16-30 16s-25.5-11-30.5-16c5 5 16 18.5 16 30.5s-11 25-16 30c5-5 18-16 30-16s25.5 11 30.5 16c-5-5-16-18.5-16-30.5s11.5-24.5 16-30"/><path class="st2" d="M920.7 868.4c-7 0-23.5-1.5-31.5-9.5s-9.5-25-10-32c-.5 7-2 23.5-10 32-8 8-24.5 9.5-31.5 9.5 6.5 0 23.5 1.5 31.5 9.5s9.5 25 10 32c.5-7 2-23.5 10-32 8.5-7.5 25-9 31.5-9.5 0 .5 0 .5 0 0"/><g id="for_DARK_background" class="st6"><circle class="st7" cx="3010.4" cy="-57.3" r="3.5"/><circle class="st7" cx="2979.8" cy="27.6" r="2.5"/><circle class="st8" cx="2963.6" cy="65.6" r="2.1"/><circle class="st9" cx="2880.7" cy="-89.7" r="2.5"/><circle class="st9" cx="2949.7" cy="-49.7" r="2.1"/><circle class="st10" cx="2985.8" cy="-78.3" r="2.5"/><circle class="st11" cx="3036.5" cy="40.7" r="3.4"/><circle class="st8" cx="2850.5" cy="27.7" r="2.1"/><g class="st12"><path class="st13" d="M2754.6-3.7l-2.5-5h-12l-2.8 5h-4.4l11.5-19.3h4.4l10 19.3h-4.2zM2742-12h8.5l-4-8-4.5 8zM2792.7-17.9c-1.4-1.1-5.3-2.2-8.6-2.2-3 0-5.6.9-5.6 3 0 3.5 16-.3 16 7.1 0 3.6-3.6 6.9-10.1 6.9-6.6 0-9.7-2.2-10.9-3.5l2.4-2.7c2.7 2.2 5.7 2.9 8.4 2.9 2.8 0 6.3-.7 6.3-3.1 0-4.6-16.1.3-16.1-7.6 0-3.9 4.4-6.3 10.1-6.3 4.8 0 8.4 1.5 10.2 2.7-.1 0-1.3 1.8-2.1 2.8zM2829.1-19.6h-7.9v15.9h-3.6v-15.9h-7.7v-3.3h19.3v3.3h-.1zM2845.5-3.7v-19.2h12.5c4.6 0 6.7 2.5 6.7 5.8 0 2.9-1.6 5.2-5 5.7l5.9 7.7h-4.6l-5.8-7.5h-6.1v7.5h-3.6zm3.7-16.1v5.5h8.7c2.2 0 3.5-1 3.5-2.8 0-1.5-1.3-2.7-3.5-2.7h-8.7zM2905.4-13.3c0 5.7-4.8 10-12.4 10-7.6 0-12.5-4.2-12.5-10s4.9-10.2 12.5-10.2c7.7 0 12.4 4.4 12.4 10.2zm-3.8 0c0-4.1-3.3-6.8-8.6-6.8s-8.6 2.7-8.6 6.8c0 4 3.3 6.6 8.6 6.6s8.6-2.6 8.6-6.6zM2943.7-3.7h-4.6l-12.5-14.8v14.8h-3.7v-19.2h4.7l12.5 14.7v-14.7h3.6v19.2zM2986.2-13.3c0 5.7-4.8 10-12.4 10-7.6 0-12.5-4.2-12.5-10s4.9-10.2 12.5-10.2 12.4 4.4 12.4 10.2zm-3.9 0c0-4.1-3.3-6.8-8.6-6.8s-8.6 2.7-8.6 6.8c0 4 3.3 6.6 8.6 6.6 5.4 0 8.6-2.6 8.6-6.6zM3018.2-7.6l9.4-15.3h4.9v19.2h-3.6v-15.2l-9.4 15.2h-3.3l-9.1-15.2v15.2h-3.6v-19.2h5.5l9.2 15.3zM3069.4-6.9v3.3h-18.5V-23h17.8v3.3h-14.2v4.6h13.2v3.2h-13.2v5h14.9zM3086.3-3.7v-19.2h12.5c4.6 0 6.7 2.5 6.7 5.8 0 2.9-1.6 5.2-5 5.7l5.9 7.7h-4.6l-5.8-7.5h-6.1v7.5h-3.6zm3.7-16.1v5.5h8.7c2.2 0 3.5-1 3.5-2.8 0-1.5-1.3-2.7-3.5-2.7h-8.7z"/></g><path class="st8" d="M2916.5-73.7c0 1.5-.3 5.1-2.1 6.8-1.8 1.8-5.4 2.1-6.9 2.2 1.5.1 5.1.4 6.9 2.2 1.8 1.8 2.1 5.4 2.1 6.8 0-1.5.3-5 2.1-6.8s5.4-2.1 6.9-2.2c-1.5-.1-5.1-.4-6.9-2.2-1.7-1.8-2-5.4-2.1-6.8"/><path class="st11" d="M2831-64.8c-.7.6-2.4 2.1-4 2.1s-3.4-1.5-4.1-2.1c.6.7 2.1 2.5 2.1 4.1s-1.5 3.3-2.1 4c.7-.6 2.4-2.1 4-2.1s3.4 1.5 4.1 2.1c-.6-.7-2.1-2.5-2.1-4.1s1.5-3.3 2.1-4"/><path class="st14" d="M2951.4 27.4c-1 1-3.6 3.2-6 3.2s-5.1-2.2-6.1-3.2c1 1 3.2 3.7 3.2 6.1s-2.2 5-3.2 6c1-1 3.6-3.2 6-3.2s5.1 2.2 6.1 3.2c-1-1-3.2-3.7-3.2-6.1 0-2.4 2.3-4.9 3.2-6"/><path class="st9" d="M2899.5 46.1c-1.4 0-4.7-.3-6.3-1.9-1.6-1.6-1.9-5-2-6.4-.1 1.4-.4 4.7-2 6.4-1.6 1.6-4.9 1.9-6.3 1.9 1.3 0 4.7.3 6.3 1.9 1.6 1.6 1.9 5 2 6.4.1-1.4.4-4.7 2-6.4 1.7-1.5 5-1.8 6.3-1.9 0 .1 0 .1 0 0"/></g></g></switch></svg>