<svg xmlns="http://www.w3.org/2000/svg" viewBox="0 0 584 584">
  <defs>
    <filter xmlns="http://www.w3.org/2000/svg" id="dropShadow" height="300%">
      <feGaussianBlur in="SourceAlpha" stdDeviation="20" />
      <feOffset dx="0" dy="0" result="offsetblur" />
      <feComponentTransfer>
        <feFuncA type="linear" slope="0.2" />
      </feComponentTransfer>
      <feMerge>
        <feMergeNode />
        <feMergeNode in="SourceGraphic" />
      </feMerge>
    </filter>
  </defs>
  <g id="astronaut" transform="translate(150.563 199.61) scale(1.2)" filter='url(#dropShadow)'>
    <g>
      <animateTransform attributeName="transform"
        attributeType="XML"
        type="translate"
        from="0 0"
        to="0 0"
        dur="48s"
        values="0 0; 25 -50; 120 -100; 25 -50; 0 0"
        keyTimes="0;0.2; .5; .8; 1"
        fill="indefinite"
      />
      <g>
        <animateTransform attributeName="transform"
          attributeType="XML"
          type="scale"
          from="1 1"
          to="1 1"
          values="1 1; .5 .5; 1 1"
          keyTimes="0; .5; 1"
          dur="62s"
          fill="indefinite"
        />
        <g>
          <animateTransform attributeName="transform"
            attributeType="XML"
            type="rotate"
            from="0 110 120"
            to="360 110 120"
            dur="20s"
            begin="0s"
            repeatCount="indefinite"
          />
          <g id="arm">
            <animateTransform attributeName="transform"
              attributeType="XML"
              type="translate"
              from="0 0"
              to="0 0"
              values="0 0; -20 -10; -10 0; 0 0;"
              keyTimes="0;0.3;0.6;1"
              dur="7s"
              begin="3s"
              repeatCount="indefinite"
            />
            <path fill="#E6E6E6" fill-rule="nonzero" d="M93.93 60.99l29.448-11.043 8.245-22.342 21.791 6.468-9.423 32.925-27.67 16.346"/>
            <path d="M131.623 27.605l-4.994-7.655c-1.298-1.99.132-4.625 2.512-4.625h2.716l3.456-7.907c2.066-4.728 7.322-7.195 12.288-5.768l1.97.566c5.04 1.448 8.185 6.447 7.303 11.608l-3.46 20.249-21.79-6.468z" fill="#00B35D" fill-rule="nonzero"/>
          </g>
          <g id="leg">
            <animateTransform attributeName="transform"
              attributeType="XML"
              type="translate"
              from="0 0"
              to="0 0"
              values="0 0; 0 -20; 0 0;"
              keyTimes="0;0.5;1"
              dur="8s"
              begin="2s"
              repeatCount="indefinite"
            />
            <path d="M111.702 150.054l6.237-6.227a22.876 22.876 0 0 1 2.22-1.952l.005.006c.737 2.034 14.454-11.588 15.196-13.64-11.26-11.24-17.084-17.331.139-.138l21.893 21.856.094.095.424.423 5.36 5.35-.937.935-21.955 21.918-5.783-5.773" fill="#E6E6E6" fill-rule="nonzero"/>
            <path fill="#FF9A09" fill-rule="nonzero" d="M191.803 168.845l-30.655 30.597-5.983-5.974 30.419-30.373.23-.23z"/>
            <path d="M185.813 162.865l-.23.23-30.418 30.373-8.987-8.972.011-.012-5.813-5.803 21.955-21.919.937-.934 5.813 5.803c4.276-4.275 11.213-4.275 15.495 0l1.237 1.234z" fill="#CCC" fill-rule="nonzero"/>
          </g>
          <path d="M21.66 36.003c0-1.4.082-2.775.247-4.133L4.574 49.18c-5.548 5.538-5.548 14.516 0 20.055l7.992 7.972 7.05 7.038 22.473 22.436h1.22V69.052l.454-1.194c-12.91-4.832-22.104-17.274-22.104-31.855z" fill="#CCC" fill-rule="nonzero"/>
          <path d="M62.673 135.949c3.952-5.416 3.652-12.97-.895-18.068l.023-.018 13.881-13.858h14.93c1.013 0 2.002.095 2.962.277l-.053.293v30.597l.153.86c-.99.193-2.014.293-3.062.293H66.859c-1.43 0-2.826-.13-4.186-.376z" fill="#FFF" fill-rule="nonzero"/>
          <path d="M43.309 106.681V69.052l.454-1.194a34.032 34.032 0 0 0 11.961 2.158 34 34 0 0 0 19.96-6.444v40.433l-13.882 13.858-.023.018a11.207 11.207 0 0 0-.578-.618c-4.823-4.815-12.203-5.509-17.774-2.092a23.948 23.948 0 0 1-.118-2.358v-6.132z" fill="#FFF" fill-rule="nonzero"/>
          <path d="M161.608 114.036l-18.975 18.938-.04-.041-5.95 5.938c-17.28 17.251-45.277 17.251-62.556 0l-2.55-2.545h19.076c1.048 0 1.013-32.32 0-32.32h-14.93V63.572a35.066 35.066 0 0 0 4.706-4.098l1.255.218 44.306 44.238 10.589-10.571 2.178-2.176 6.237-6.226a22.876 22.876 0 0 1 2.22-1.952l.006.006a15.198 15.198 0 0 0 3.57 5.592c5.977 5.967 15.671 5.967 21.648 0a15.242 15.242 0 0 0 3.593-5.639c.79.606 1.549 1.27 2.273 1.993l6.143 6.13.094.095.424.423 5.36 5.35-.937.935-21.955 21.918-5.785-5.772z" fill="#F2F2F2" fill-rule="nonzero"/>
          <path fill="#FF9A09" fill-rule="nonzero" d="M218.818 109.974l-30.654 30.597-5.984-5.974 30.419-30.373.23-.23z"/>
          <path d="M175.99 82.963a15.235 15.235 0 0 1-3.592 5.638c-5.978 5.968-15.672 5.968-21.65 0a15.206 15.206 0 0 1-3.568-5.591l-.006-.006a23.173 23.173 0 0 1 3.233-2.117 23.659 23.659 0 0 1 14.623-2.569 23.426 23.426 0 0 1 10.96 4.645zM61.778 117.881c4.546 5.098 4.846 12.654.895 18.068-10.254-1.828-18.204-10.289-19.246-20.778 5.571-3.416 12.95-2.722 17.774 2.093.2.2.394.406.577.617z" fill="#00B35D" fill-rule="nonzero"/>
          <path d="M212.829 103.994l-.23.23-30.419 30.373-8.987-8.972.012-.012-5.813-5.803 21.955-21.919.936-.935 5.813 5.804c4.276-4.275 11.214-4.275 15.496 0l1.237 1.234z" fill="#CCC" fill-rule="nonzero"/>
          <path d="M81.642 59.691l-1.254-.217A34.007 34.007 0 0 0 88.48 45.38l10.983 10.971h.006l22.386 22.354h.006l1.925 1.923v.005l12.75 12.724-10.588 10.571-44.306-44.237z" fill="#E6E6E6" fill-rule="nonzero"/>
          <path fill="#FF9A09" fill-rule="nonzero" d="M31.241 72.644l-.53.523-9.865 9.849-1.23 1.23-7.05-7.04 1.23-1.228 9.865-9.848.53-.523z"/>

          <path d="M93.575 104.282l4.92-4.912c1.476-1.474 4.003-.43 4.003 1.656v4.842l4.265.39c4.873.446 8.604 4.526 8.604 9.412v7.804a9.454 9.454 0 0 1-7.527 9.25l-17.227 3.6v-32.32" fill="#00B35D" fill-rule="nonzero"/>
          <ellipse fill="#F2F2F2" fill-rule="nonzero" cx="55.887" cy="37.669" rx="35.042" ry="34.983"/>
          <ellipse fill="#0CBEDB" fill-rule="nonzero" transform="rotate(-107.687 54.144 33.204)" cx="54.144" cy="33.204" rx="24.663" ry="30.278"/>
          <ellipse fill="#73D5EF" fill-rule="nonzero" transform="rotate(-100.591 72.838 31.178)" cx="72.838" cy="31.178" rx="9.424" ry="6.762"/>

          <path stroke="#373434" fill="#373434" d="M23.953 87.93l2.569-2.001 3.602.46 2.359-3.123 2.019 3.778 3.041-.395.793 5.632-3.834 1.752v4.427z"/>
        </g>
      </g>
    </g>
  </g>
</svg>
