<svg width="100" height="100" viewBox="0 0 100 100" fill="none" xmlns="http://www.w3.org/2000/svg">
<g clip-path="url(#clip0)">
<path d="M0 0C0 0 3.15315 3.06306 7.83784 7.74775C12.5225 12.4324 18.8288 18.6486 25.045 24.8649C31.2613 31.1712 37.4775 37.3874 42.1622 42.0721C46.8468 46.7568 49.9099 49.9099 49.9099 49.9099C49.9099 49.9099 46.7568 46.8468 42.0721 42.1622C37.3874 37.4775 31.0811 31.2613 24.8649 25.045C18.6486 18.7387 12.4324 12.5225 7.74775 7.83784C3.15315 3.15315 0 0 0 0Z" fill="#CA6D54"/>
<path d="M0 100C0 100 3.15315 96.8468 7.74775 92.1622C12.4324 87.4775 18.6486 81.1712 24.8649 74.955C31.1712 68.7387 37.3874 62.5225 42.0721 57.8378C46.7568 53.1531 49.9099 50.0901 49.9099 50.0901C49.9099 50.0901 46.8468 53.2432 42.1622 57.9279C37.4775 62.6126 31.2613 68.9189 25.045 75.1351C18.7387 81.3514 12.5225 87.5676 7.83784 92.2523C3.15315 96.9369 0 100 0 100Z" fill="#5E86A0"/>
<path d="M99.9998 100C99.9998 100 96.8466 96.9369 92.1619 92.2523C87.4772 87.5676 81.1709 81.3514 74.9547 75.1351C68.7385 68.8288 62.5223 62.6126 57.8376 57.9279C53.1529 53.2432 50.0898 50.0901 50.0898 50.0901C50.0898 50.0901 53.243 53.1531 57.9277 57.8378C62.6124 62.5225 68.9187 68.7387 75.1349 74.955C81.3511 81.2613 87.5673 87.4775 92.252 92.1622C96.9367 96.9369 99.9998 100 99.9998 100Z" fill="#ABA35A"/>
<path d="M99.9998 0C99.9998 0 96.9367 3.15315 92.252 7.83784C87.5673 12.5225 81.3511 18.8288 75.1349 25.045C68.8286 31.2613 62.6124 37.4775 57.9277 42.1622C53.243 46.8468 50.0898 49.9099 50.0898 49.9099C50.0898 49.9099 53.1529 46.7568 57.8376 42.0721C62.5223 37.3874 68.7385 31.0811 74.9547 24.8649C81.261 18.6486 87.4772 12.4324 92.1619 7.74775C96.8466 3.15315 99.9998 0 99.9998 0Z" fill="#5D8B70"/>
<path d="M52.6126 47.4775L50 50C58.1982 69.3694 66.7568 68.2883 66.7568 68.2883L82.8829 52.1622C94.2342 41.5315 97.8378 14.6847 99.9099 0L76.2162 23.6937L52.6126 47.4775ZM82.2523 52.8829C82.4324 52.7027 82.6126 52.6126 82.7027 52.4324C82.5225 52.5225 82.3423 52.7027 82.2523 52.8829Z" fill="#47DAE9"/>
<path d="M47.4775 47.4775L50 50C69.3694 41.8018 68.2883 33.2432 68.2883 33.2432L52.1622 17.1171C41.5315 5.67568 14.6847 2.07207 0 0L23.6937 23.7838L47.4775 47.4775ZM52.7928 17.8378C52.6126 17.6577 52.5225 17.4775 52.3423 17.3874C52.5225 17.4775 52.7027 17.6577 52.7928 17.8378Z" fill="#FB5B3C"/>
<path d="M68.2885 33.2433L52.0723 17.027C58.4687 23.8739 61.4416 36.1261 49.9101 50C69.3696 41.8919 68.2885 33.2433 68.2885 33.2433Z" fill="#D62027"/>
<path d="M47.4772 52.6126L49.9998 50C41.8016 30.6306 33.243 31.7117 33.243 31.7117L17.1169 47.8378C5.76552 58.4685 2.16192 85.3153 0.0898438 100L23.7835 76.3063L47.4772 52.6126ZM17.8376 47.2072C17.6574 47.3874 17.4772 47.4775 17.3871 47.6577C17.4772 47.4775 17.6574 47.3874 17.8376 47.2072Z" fill="#09ACC6"/>
<path d="M33.2431 31.7117L17.0269 47.9279C23.8737 41.5315 36.126 38.4685 49.9998 50C41.8016 30.6306 33.2431 31.7117 33.2431 31.7117Z" fill="#0784AA"/>
<path d="M52.613 52.6126L50.0004 50C30.631 58.1982 31.7121 66.7568 31.7121 66.7568L47.8382 82.8829C58.4688 94.2342 85.3157 97.8378 100 99.9099L76.3067 76.2162L52.613 52.6126Z" fill="#07D65B"/>
<path d="M31.7121 66.8468L47.9283 83.0631C41.5319 76.2162 38.4688 63.8739 50.0004 50C30.631 58.1982 31.7121 66.8468 31.7121 66.8468Z" fill="#009656"/>
<path d="M66.8468 68.3784L83.0631 52.1622C76.2162 58.5586 63.8739 61.5315 50 50C58.1982 69.4594 66.8468 68.3784 66.8468 68.3784Z" fill="#19AADA"/>
<path d="M50.0001 54.6847C52.5874 54.6847 54.6848 52.5873 54.6848 50C54.6848 47.4127 52.5874 45.3153 50.0001 45.3153C47.4128 45.3153 45.3154 47.4127 45.3154 50C45.3154 52.5873 47.4128 54.6847 50.0001 54.6847Z" fill="#302C43"/>
</g>
<defs>
<clipPath id="clip0">
<rect width="100" height="100" fill="white"/>
</clipPath>
</defs>
</svg>
