<svg xmlns="http://www.w3.org/2000/svg" width="32.393" height="15.507">
    <circle r="2.044" cy="12.491" cx="9.938" fill="#00599f"/>
    <circle r="2.044" cy="13.463" cx="16.481" fill="#00599f"/>
    <circle cx="22.919" cy="12.363" r="2.044" fill="#00599f"/>
    <path d="M32.392 8.843c-0.024 2.085-7.727 4.355-16.687 4.235-8.96-0.12-15.7-2.613-15.705-4.69-0.005-2.076 7.278-3.665 16.237-3.546 8.96.12 16.19 1.913 16.155 4z" fill="#6198aa"/>
    <path d="M29.228 7.975c-0.02 1.678-6.218 3.505-13.427 3.408C8.592 11.287 3.168 9.281 3.164 7.61 3.161 5.938 9.02 4.66 16.23 4.756c7.21.097 13.026 1.54 13 3.22z" fill="#89b2bf"/>
    <path d="M21.902 6.088a6 6 0 1 0-12-0.176c.763 3.285 10.571 4.221 12 0.176z" fill="#ececec"/>
    <path d="M15.712 1.894a2.672 2.672 0 0 0-2.678 2.678v3.734c1.732.51 3.87.616 5.637.185v-3.92a2.672 2.672 0 0 0-2.678-2.677h-0.281z" fill="#87d86d"/>
    <path d="M15.712 1.894a2.672 2.672 0 0 0-2.678 2.678v3.734a11.6 11.6 0 0 0 2.834.445V1.894h-0.156z" fill="#73aa61"/>
    <circle cx="15.903" cy="4.646" r="1.895" fill="#fff"/>
    <circle r="1.131" cy="4.691" cx="15.903"/>
    <path d="M16.32 3.902l-0.036.33c.193.115.251.312.305.51.108-0.296-0.04-0.571-0.27-0.84z" fill="#fff" fill-rule="evenodd"/>
</svg>
