<svg xmlns="http://www.w3.org/2000/svg" id="Layer_1" viewBox="0 0 1901.1 816.2">
  <style>
    .st0{fill:#f4362c}.st1{fill:#ff9a09}.st2{fill:#302c43}.st3{fill:#7d766a}.st4{fill:#00ad6b}.st5{fill:#079dad}.st6{fill:#302c43;stroke:#302c43;stroke-width:2;stroke-linecap:round;stroke-linejoin:round;stroke-miterlimit:10}.st8{display:inline;fill:#f4362c}.st10,.st12,.st9{display:inline;fill:#ff9a09}.st10,.st12{fill:#7d766a}.st12{fill:#079dad}.st14{fill:#f5f2ed}
  </style>
  <circle cx="1407.6" cy="187.9" r="17.5" class="st0"/>
  <circle cx="1254.7" cy="612" r="12.5" class="st0"/>
  <circle cx="1176.8" cy="790.8" r="10.5" class="st1"/>
  <circle cx="759.7" cy="26" r="12.5" class="st2"/>
  <circle cx="1104.4" cy="225.8" r="10.5" class="st3"/>
  <circle cx="1284.7" cy="83" r="12.5" class="st4"/>
  <circle cx="1537.9" cy="677.4" r="17" class="st5"/>
  <circle cx="608.9" cy="612.5" r="10.5" class="st2"/>
  <path d="M129.8 455.6l-12.5-25H57.4l-14 25h-22l57.4-96.4h22l49.9 96.4h-20.9zm-62.9-41.4h42.5l-20-40-22.5 40zM320.1 384.7c-7-5.5-26.5-11-43-11-15 0-28 4.5-28 15 0 17.5 79.9-1.5 79.9 35.5 0 18-18 34.5-50.4 34.5-33 0-48.5-11-54.4-17.5l12-13.5c13.5 11 28.5 14.5 42 14.5 14 0 31.5-3.5 31.5-15.5 0-23-80.4 1.5-80.4-38 0-19.5 22-31.5 50.4-31.5 24 0 42 7.5 50.9 13.5-.5 0-6.5 9-10.5 14zM502 376.2h-39.5v79.4h-18v-79.4H406v-16.5h96.4v16.5h-.4zM583.9 455.6v-95.9h62.4c23 0 33.5 12.5 33.5 29 0 14.5-8 26-25 28.5l29.5 38.5h-23l-29-37.5h-30.4v37.5c0-.1-18-.1-18-.1zm18.5-80.4v27.5h43.5c11 0 17.5-5 17.5-14 0-7.5-6.5-13.5-17.5-13.5h-43.5zM883.1 407.7c0 28.5-24 49.9-61.9 49.9-38 0-62.4-21-62.4-49.9 0-29 24.5-50.9 62.4-50.9 38.4-.1 61.9 21.9 61.9 50.9zm-19 0c0-20.5-16.5-34-43-34s-43 13.5-43 34c0 20 16.5 33 43 33s43-13.1 43-33zM1074.4 455.6h-23L989 381.7v73.9h-18.5v-95.9H994l62.4 73.4v-73.4h18v95.9zM1286.7 407.7c0 28.5-24 49.9-61.9 49.9-38 0-62.4-21-62.4-49.9 0-29 24.5-50.9 62.4-50.9 37.9-.1 61.9 21.9 61.9 50.9zm-19.5 0c0-20.5-16.5-34-43-34s-43 13.5-43 34c0 20 16.5 33 43 33 27-.1 43-13.1 43-33zM1446.5 436.1l47-76.4h24.5v95.9h-18v-75.9l-47 75.9h-16.5l-45.5-75.9v75.9h-18v-95.9h27.5l46 76.4zM1702.3 439.6v16.5h-92.4v-96.9h88.9v16.5h-70.9v23h65.9v16h-65.9v25c-.1-.1 74.4-.1 74.4-.1zM1786.7 455.6v-95.9h62.4c23 0 33.5 12.5 33.5 29 0 14.5-8 26-25 28.5l29.5 38.5h-23l-29-37.5h-30.5v37.5c.1-.1-17.9-.1-17.9-.1zm18.5-80.4v27.5h43.5c11 0 17.5-5 17.5-14 0-7.5-6.5-13.5-17.5-13.5h-43.5z" class="st6"/>
  <path d="M938.5 106c0 7.5-1.5 25.5-10.5 34-9 9-27 10.5-34.5 11 7.5.5 25.5 2 34.5 11s10.5 27 10.5 34c0-7.5 1.5-25 10.5-34s27-10.5 34.5-11c-7.5-.5-25.5-2-34.5-11-8.5-9.1-10-27-10.5-34" class="st1"/>
  <path d="M511.5 150.4c-3.5 3-12 10.5-20 10.5s-17-7.5-20.5-10.5c3 3.5 10.5 12.5 10.5 20.5s-7.5 16.5-10.5 20c3.5-3 12-10.5 20-10.5s17 7.5 20.5 10.5c-3-3.5-10.5-12.5-10.5-20.5s7.5-16.5 10.5-20" class="st5"/>
  <path d="M1112.9 611c-5 5-18 16-30 16s-25.5-11-30.5-16c5 5 16 18.5 16 30.5s-11 25-16 30c5-5 18-16 30-16s25.5 11 30.5 16c-5-5-16-18.5-16-30.5s11.5-24.5 16-30" class="st3"/>
  <path d="M853.6 704.4c-7 0-23.5-1.5-31.5-9.5s-9.5-25-10-32c-.5 7-2 23.5-10 32-8 8-24.5 9.5-31.5 9.5 6.5 0 23.5 1.5 31.5 9.5s9.5 25 10 32c.5-7 2-23.5 10-32 8.5-7.5 25-9 31.5-9.5 0 .5 0 .5 0 0" class="st4"/>
</svg>
