<svg xmlns="http://www.w3.org/2000/svg" id="Layer_1" viewBox="0 0 1915 824.4">
  <style>
    .st0{fill:#f4362c}.st1{fill:#ff9a09}.st2{fill:#7d766a}.st3{fill:#00ad6b}.st4{fill:#079dad}.st7{display:inline;fill:#f4362c}.st11,.st8,.st9{display:inline;fill:#ff9a09}.st11,.st9{fill:#7d766a}.st11{fill:#079dad}
  </style>
  <circle cx="1405.2" cy="195.5" r="17.5" class="st0"/>
  <circle cx="1252.3" cy="619.6" r="12.5" class="st0"/>
  <circle cx="1174.4" cy="798.4" r="10.5" class="st1"/>
  <circle cx="757.3" cy="33.6" r="12.5" class="st2"/>
  <circle cx="1102" cy="233.4" r="10.5" class="st2"/>
  <circle cx="1282.3" cy="90.6" r="12.5" class="st3"/>
  <circle cx="1535.5" cy="685" r="17" class="st4"/>
  <circle cx="606.5" cy="620.1" r="10.5" class="st1"/>
  <path fill="#e8e0d8" stroke="#e8e0d8" stroke-linecap="round" stroke-linejoin="round" stroke-miterlimit="10" d="M127.4 463.2l-12.5-25H55l-14 25H19l57.4-96.4h22l49.9 96.4h-20.9zm-62.9-41.4H107l-20-40-22.5 40zm253.2-29.5c-7-5.5-26.5-11-43-11-15 0-28 4.5-28 15 0 17.5 79.9-1.5 79.9 35.5 0 18-18 34.5-50.4 34.5-33 0-48.5-11-54.4-17.5l12-13.5c13.5 11 28.5 14.5 42 14.5 14 0 31.5-3.5 31.5-15.5 0-23-80.4 1.5-80.4-38 0-19.5 22-31.5 50.4-31.5 24 0 42 7.5 50.9 13.5-.5 0-6.5 9-10.5 14zm181.9-8.5h-39.5v79.4h-18v-79.4h-38.5v-16.5H500v16.5h-.4zm81.9 79.4v-95.9h62.4c23 0 33.5 12.5 33.5 29 0 14.5-8 26-25 28.5l29.5 38.5h-23l-29-37.5h-30.4v37.5c0-.1-18-.1-18-.1zm18.5-80.4v27.5h43.5c11 0 17.5-5 17.5-14 0-7.5-6.5-13.5-17.5-13.5H600zm280.7 32.5c0 28.5-24 49.9-61.9 49.9-38 0-62.4-21-62.4-49.9 0-29 24.5-50.9 62.4-50.9 38.4-.1 61.9 21.9 61.9 50.9zm-19 0c0-20.5-16.5-34-43-34s-43 13.5-43 34c0 20 16.5 33 43 33s43-13.1 43-33zm210.3 47.9h-23l-62.4-73.9v73.9h-18.5v-95.9h23.5l62.4 73.4v-73.4h18v95.9zm212.3-47.9c0 28.5-24 49.9-61.9 49.9-38 0-62.4-21-62.4-49.9 0-29 24.5-50.9 62.4-50.9 37.9-.1 61.9 21.9 61.9 50.9zm-19.5 0c0-20.5-16.5-34-43-34s-43 13.5-43 34c0 20 16.5 33 43 33 27-.1 43-13.1 43-33zm179.3 28.4l47-76.4h24.5v95.9h-18v-75.9l-47 75.9h-16.5l-45.5-75.9v75.9h-18v-95.9h27.5l46 76.4zm255.8 3.5v16.5h-92.4v-96.9h88.9v16.5h-70.9v23h65.9v16h-65.9v25c-.1-.1 74.4-.1 74.4-.1zm84.4 16v-95.9h62.4c23 0 33.5 12.5 33.5 29 0 14.5-8 26-25 28.5l29.5 38.5h-23l-29-37.5h-30.5v37.5c.1-.1-17.9-.1-17.9-.1zm18.5-80.4v27.5h43.5c11 0 17.5-5 17.5-14 0-7.5-6.5-13.5-17.5-13.5h-43.5z"/>
  <path d="M936.1 113.6c0 7.5-1.5 25.5-10.5 34-9 9-27 10.5-34.5 11 7.5.5 25.5 2 34.5 11s10.5 27 10.5 34c0-7.5 1.5-25 10.5-34s27-10.5 34.5-11c-7.5-.5-25.5-2-34.5-11-8.5-9.1-10-27-10.5-34" class="st1"/>
  <path d="M509.1 158c-3.5 3-12 10.5-20 10.5s-17-7.5-20.5-10.5c3 3.5 10.5 12.5 10.5 20.5s-7.5 16.5-10.5 20c3.5-3 12-10.5 20-10.5s17 7.5 20.5 10.5c-3-3.5-10.5-12.5-10.5-20.5s7.5-16.5 10.5-20" class="st4"/>
  <path d="M1110.5 618.6c-5 5-18 16-30 16s-25.5-11-30.5-16c5 5 16 18.5 16 30.5s-11 25-16 30c5-5 18-16 30-16s25.5 11 30.5 16c-5-5-16-18.5-16-30.5s11.5-24.5 16-30" class="st3"/>
  <path d="M851.2 712c-7 0-23.5-1.5-31.5-9.5s-9.5-25-10-32c-.5 7-2 23.5-10 32-8 8-24.5 9.5-31.5 9.5 6.5 0 23.5 1.5 31.5 9.5s9.5 25 10 32c.5-7 2-23.5 10-32 8.5-7.5 25-9 31.5-9.5 0 .5 0 .5 0 0" class="st2"/>
</svg>
